<svg width="20" height="14" viewBox="0 0 20 14" fill="none" xmlns="http://www.w3.org/2000/svg">
<path d="M18.3333 6.16682H3.67832L8.08915 1.75598C8.16874 1.67911 8.23223 1.58716 8.2759 1.48549C8.31958 1.38382 8.34257 1.27447 8.34353 1.16382C8.34449 1.05317 8.3234 0.943434 8.2815 0.841021C8.2396 0.738607 8.17772 0.645564 8.09948 0.56732C8.02124 0.489076 7.92819 0.427198 7.82578 0.385297C7.72337 0.343397 7.61363 0.322312 7.50298 0.323274C7.39233 0.324235 7.28298 0.347224 7.18131 0.390898C7.07964 0.434572 6.98769 0.498057 6.91082 0.577649L1.07748 6.41098C0.921259 6.56726 0.833496 6.77918 0.833496 7.00015C0.833496 7.22112 0.921259 7.43304 1.07748 7.58932L6.91082 13.4226C7.06799 13.5744 7.27849 13.6584 7.49699 13.6565C7.71548 13.6546 7.92449 13.567 8.079 13.4125C8.23351 13.258 8.32115 13.049 8.32305 12.8305C8.32494 12.612 8.24095 12.4015 8.08915 12.2443L3.67832 7.83348H18.3333C18.5543 7.83348 18.7663 7.74568 18.9226 7.5894C19.0789 7.43312 19.1667 7.22116 19.1667 7.00015C19.1667 6.77914 19.0789 6.56717 18.9226 6.41089C18.7663 6.25461 18.5543 6.16682 18.3333 6.16682Z" fill="white"/>
</svg>
