<svg width="29" height="29" viewBox="0 0 29 29" fill="none" xmlns="http://www.w3.org/2000/svg">
<path d="M28.9998 4.8147C28.9998 5.13394 28.873 5.44009 28.6473 5.66583C28.4215 5.89156 28.1154 6.01838 27.7961 6.01838H2.11774C1.7985 6.01838 1.49234 5.89156 1.26661 5.66583C1.04088 5.44009 0.914062 5.13394 0.914062 4.8147C0.914062 4.49547 1.04088 4.18931 1.26661 3.96357C1.49234 3.73784 1.7985 3.61103 2.11774 3.61103H8.88078C9.03433 3.29036 9.16414 2.95886 9.26917 2.6192L9.59015 1.64502C9.75028 1.16538 10.0574 0.74833 10.4679 0.453053C10.8784 0.157776 11.3715 -0.000737099 11.8771 2.57694e-06H18.0367C18.5419 -6.29774e-05 19.0342 0.158762 19.4441 0.453992C19.8539 0.749221 20.1606 1.1659 20.3205 1.64502L20.6415 2.6192C20.7465 2.95886 20.8763 3.29036 21.0299 3.61103H27.7961C28.1154 3.61103 28.4215 3.73784 28.6473 3.96357C28.873 4.18931 28.9998 4.49547 28.9998 4.8147ZM25.4851 7.62327C25.5511 7.62313 25.6164 7.63656 25.6771 7.66274C25.7377 7.68892 25.7922 7.72728 25.8374 7.77545C25.8826 7.82361 25.9173 7.88055 25.9395 7.94272C25.9617 8.00489 25.9709 8.07097 25.9665 8.13684L24.8913 24.3945C24.9135 25.0184 24.8016 25.6399 24.563 26.2169C24.3244 26.7938 23.9647 27.3128 23.5083 27.7389C23.0518 28.1649 22.5093 28.4879 21.9172 28.6862C21.3252 28.8845 20.6975 28.9534 20.0766 28.8882H9.8373C9.21636 28.9534 8.58867 28.8845 7.99663 28.6862C7.4046 28.4879 6.86204 28.1649 6.4056 27.7389C5.94916 27.3128 5.5895 26.7938 5.3509 26.2169C5.11231 25.6399 5.00036 25.0184 5.0226 24.3945L3.94893 8.13684C3.94453 8.07097 3.95372 8.00489 3.97594 7.94272C3.99815 7.88055 4.03292 7.82361 4.07808 7.77545C4.12323 7.72728 4.17781 7.68892 4.23842 7.66274C4.29903 7.63656 4.36438 7.62313 4.4304 7.62327H25.4851ZM12.9508 12.8392C12.9508 12.52 12.824 12.2138 12.5983 11.9881C12.3725 11.7623 12.0664 11.6355 11.7471 11.6355C11.4279 11.6355 11.1217 11.7623 10.896 11.9881C10.6703 12.2138 10.5435 12.52 10.5435 12.8392V20.8637C10.5435 21.1829 10.6703 21.4891 10.896 21.7148C11.1217 21.9406 11.4279 22.0674 11.7471 22.0674C12.0664 22.0674 12.3725 21.9406 12.5983 21.7148C12.824 21.4891 12.9508 21.1829 12.9508 20.8637V12.8392ZM19.3704 12.8392C19.3704 12.52 19.2436 12.2138 19.0179 11.9881C18.7921 11.7623 18.486 11.6355 18.1667 11.6355C17.8475 11.6355 17.5413 11.7623 17.3156 11.9881C17.0899 12.2138 16.9631 12.52 16.9631 12.8392V20.8637C16.9631 21.1829 17.0899 21.4891 17.3156 21.7148C17.5413 21.9406 17.8475 22.0674 18.1667 22.0674C18.486 22.0674 18.7921 21.9406 19.0179 21.7148C19.2436 21.4891 19.3704 21.1829 19.3704 20.8637V12.8392Z" fill="#A21313"/>
</svg>
