<svg width="29" height="29" viewBox="0 0 29 29" fill="none" xmlns="http://www.w3.org/2000/svg">
<path d="M5.21892 5.94919C5.21892 4.77255 5.56783 3.62234 6.22154 2.644C6.87524 1.66566 7.80438 0.903137 8.89145 0.452857C9.97852 0.00257767 11.1747 -0.115236 12.3287 0.114315C13.4828 0.343865 14.5428 0.91047 15.3748 1.74248C16.2068 2.57449 16.7734 3.63453 17.003 4.78856C17.2325 5.94259 17.1147 7.13877 16.6644 8.22584C16.2142 9.31291 15.4516 10.242 14.4733 10.8958C13.495 11.5495 12.3447 11.8984 11.1681 11.8984C9.59028 11.8984 8.07708 11.2716 6.9614 10.1559C5.84571 9.04021 5.21892 7.52701 5.21892 5.94919ZM20.1633 17.3716C20.1439 17.2343 20.077 17.108 19.9744 17.0147C19.1938 16.2836 18.2739 15.7172 17.2697 15.3492C16.2655 14.9813 15.1975 14.8193 14.1293 14.873H8.18013C2.14171 14.873 0 19.2902 0 23.0828C0 26.4739 1.79963 28.2586 5.20554 28.2586H12.9395C12.9981 28.2603 13.0564 28.2492 13.1104 28.2261C13.1643 28.203 13.2126 28.1684 13.2518 28.1248C13.3345 28.0385 13.3823 27.9245 13.3857 27.805V25.284C13.3862 24.6926 13.6216 24.1255 14.0401 23.7075L20.0339 17.684C20.1151 17.6001 20.1614 17.4884 20.1633 17.3716ZM15.6166 25.284V29.0023H19.3348L26.0857 22.2812L22.3392 18.5347L15.6166 25.284ZM28.568 17.7152L26.9022 16.0494C26.6235 15.7724 26.2466 15.6169 25.8537 15.6169C25.4607 15.6169 25.0838 15.7724 24.8051 16.0494L23.3788 17.4921L27.1253 21.2386L28.568 19.8123C28.8445 19.5337 28.9997 19.157 28.9997 18.7645C28.9997 18.3719 28.8445 17.9938 28.568 17.7152Z" fill="#6c757d"/>
</svg>
