<svg width="25" height="25" viewBox="0 0 30 30" fill="none"
                                                                xmlns="http://www.w3.org/2000/svg">
                                                                <path
                                                                    d="M22.4742 12.9867V7.30934C22.4742 7.14686 22.3918 6.99668 22.275 6.87791L15.2784 0.193887C15.1477 0.0689063 14.9622 0 14.7767 0H3.68378C1.63579 0 0 1.51934 0 3.38262V22.4657C0 24.3289 1.63579 25.8234 3.68372 25.8234H12.4399C14.0961 28.3243 17.1066 30 20.5361 30C25.7456 30 30 26.1484 30 21.4027C30.0071 17.2572 26.7354 13.7933 22.4742 12.9868V12.9867ZM15.4641 2.1948L20.1581 6.69029H17.1135C16.2062 6.69029 15.464 6.00885 15.464 5.18355L15.4641 2.1948ZM3.68372 24.5728C2.39862 24.5728 1.37469 23.6348 1.37469 22.4657V3.38262C1.37469 2.20711 2.39862 1.25063 3.68372 1.25063H14.0894V5.18344C14.0894 6.70277 15.4434 7.94086 17.1135 7.94086H21.0996V12.8241C20.8935 12.8179 20.7285 12.799 20.5499 12.799C18.1512 12.799 15.9451 13.637 14.2818 14.9501H5.5533C5.17517 14.9501 4.86596 15.2314 4.86596 15.5752C4.86596 15.9192 5.17511 16.2005 5.5533 16.2005H13.0035C12.5154 16.8258 12.1099 17.4511 11.7939 18.1389H5.55324C5.17511 18.1389 4.86589 18.4202 4.86589 18.7642C4.86589 19.108 5.17504 19.3895 5.55324 19.3895H11.347C11.1752 20.0148 11.0859 20.7088 11.0859 21.4028C11.0859 22.5281 11.3264 23.6412 11.7594 24.5791H3.68372V24.5728ZM20.5431 28.7558C16.0895 28.7558 12.4674 25.4606 12.4674 21.4089C12.4674 17.3572 16.0825 14.062 20.5431 14.062C25.0035 14.062 28.6185 17.3572 28.6185 21.4089C28.6185 25.4606 24.9967 28.7558 20.5431 28.7558Z"
                                                                    fill="black" />
                                                                <path
                                                                    d="M5.55355 13.0679H12.5157C12.8938 13.0679 13.203 12.7865 13.203 12.4426C13.203 12.0987 12.8939 11.8174 12.5157 11.8174H5.55355C5.17543 11.8174 4.86621 12.0986 4.86621 12.4426C4.86621 12.7865 5.17536 13.0679 5.55355 13.0679ZM21.0312 16.7944C20.9006 16.6694 20.722 16.5944 20.5295 16.5944C20.337 16.5944 20.1584 16.6694 20.0278 16.7944L16.0002 20.7273C15.739 20.9775 15.7597 21.3775 16.0346 21.6089C16.3097 21.8465 16.7562 21.8277 17.0174 21.5778L19.8628 18.8079V25.6357C19.8628 25.9796 20.172 26.2609 20.5501 26.2609C20.928 26.2609 21.2374 25.9797 21.2374 25.6357V18.8079L24.062 21.5778C24.1996 21.7089 24.3783 21.7779 24.564 21.7779C24.7287 21.7779 24.8937 21.7215 25.0312 21.6089C25.3062 21.3713 25.3268 20.9775 25.0656 20.7273L21.0312 16.7944Z"
                                                                    fill="black" />
                                                            </svg>