<svg xmlns="http://www.w3.org/2000/svg" version="1.1" xmlns:xlink="http://www.w3.org/1999/xlink" width="38" height="38" x="0" y="0" viewBox="0 0 24 24" style="enable-background:new 0 0 512 512" xml:space="preserve" class="">
    <g>
        <path d="M8 0C4.691 0 2 2.691 2 6s2.691 6 6 6 6-2.691 6-6-2.691-6-6-6zm0 10c-2.206 0-4-1.794-4-4s1.794-4 4-4 4 1.794 4 4-1.794 4-4 4zm2.992 5.187a.996.996 0 0 1-1.116.868A7.032 7.032 0 0 0 9 16.001c-3.859 0-7 3.14-7 7a1 1 0 1 1-2 0c0-4.962 4.037-9 9-9 .377 0 .755.023 1.124.07a1 1 0 0 1 .868 1.117zM18 23a1 1 0 0 1-1 1h-1c-1.654 0-3-1.346-3-3v-6c0-1.654 1.346-3 3-3h1a1 1 0 1 1 0 2h-1c-.552 0-1 .449-1 1v6c0 .551.448 1 1 1h1a1 1 0 0 1 1 1zm5.996-4.979c0 .543-.21 1.011-.599 1.349l-2.199 1.939a.997.997 0 0 1-1.411-.089 1 1 0 0 1 .089-1.411l.917-.809h-2.792a1 1 0 1 1 0-2h2.658l-.783-.691a1 1 0 0 1 1.322-1.5l2.207 1.946c.369.314.592.788.592 1.266z" fill="#CFEFFF" opacity="1" data-original="#000000" class=""></path>
    </g>
</svg>                            
