<svg width="53" height="53" viewBox="0 0 53 53" fill="none" xmlns="http://www.w3.org/2000/svg">
        <path d="M14.6207 12.3667C16.1322 12.3667 17.3621 11.1777 17.3621 9.71667V3.53333H15.5345V9.71667C15.524 9.94411 15.4231 10.1589 15.2529 10.3162C15.0827 10.4736 14.8563 10.5614 14.6207 10.5614C14.3852 10.5614 14.1588 10.4736 13.9886 10.3162C13.8183 10.1589 13.7175 9.94411 13.7069 9.71667V3.53333C13.7069 2.55902 14.5266 1.76667 15.5345 1.76667H17.3621C18.37 1.76667 19.1897 2.55902 19.1897 3.53333V10.6H21.0173V3.53333C21.0173 1.5847 19.378 0 17.3621 0H15.5345C13.5187 0 11.8794 1.5847 11.8794 3.53333V9.71667C11.8794 11.1777 13.1093 12.3667 14.6207 12.3667ZM19.5726 34.0799L17.9113 34.6152L19.0188 35.6858L19.5726 34.0799ZM0.867201 48.1099C0.591487 48.3754 0.372903 48.6911 0.224064 49.0388C0.0752237 49.3864 -0.000925959 49.7591 8.49697e-06 50.1353C0.000733938 50.8947 0.31306 51.6228 0.868458 52.1599C1.42386 52.6969 2.17696 52.9991 2.96253 53C3.7548 53 4.49863 52.7023 5.05696 52.1617L6.01827 51.2333L1.8276 47.1824L0.867201 48.1099ZM30.1553 45.9333H39.2932V49.4667H30.1553V45.9333ZM14.4846 35.7193L17.8766 38.9983L18.3728 37.5593L15.9732 35.2397L14.4846 35.7193ZM3.11514 45.9289L12.7868 36.5788L16.9765 40.6289L7.30398 49.979L3.11514 45.9289ZM27.9969 22.3112L27.5784 24.7333H36.3864L35.9688 22.3112C35.888 21.8469 35.7098 21.4035 35.4454 21.0081C35.1809 20.6128 34.8357 20.2738 34.4309 20.0119C33.8462 19.6342 33.1586 19.4329 32.4553 19.4333H31.5113C30.8078 19.4329 30.1199 19.6342 29.5348 20.0119C29.1299 20.2736 28.7845 20.6126 28.5201 21.008C28.2556 21.4034 28.0776 21.8469 27.9969 22.3112Z" fill="white"/>
        <path d="M31.9829 17.6666C32.9922 17.6666 33.8105 16.8757 33.8105 15.9C33.8105 14.9243 32.9922 14.1333 31.9829 14.1333C30.9735 14.1333 30.1553 14.9243 30.1553 15.9C30.1553 16.8757 30.9735 17.6666 31.9829 17.6666Z" fill="white"/>
        <path d="M22.8449 8.83356H41.1208V26.5002H22.8449V12.3669H18.274C17.8489 12.9155 17.2974 13.3608 16.6633 13.6674C16.0291 13.9741 15.3298 14.1337 14.6207 14.1336H21.0173V15.9002H10.0517V14.1336H14.6207C12.1014 14.1336 10.0517 12.1522 10.0517 9.71689V7.06689H8.22412V38.5012L12.2996 34.5615L20.8692 31.8002H41.1208V33.5669H21.6761L19.0745 41.1106L8.22412 51.5993V53.0002H42.9484V7.06689H22.8449V8.83356ZM26.5 51.2336H19.1897V49.4669H26.5V51.2336ZM26.5 47.7002H19.1897V45.9336H26.5V47.7002ZM41.1208 51.2336H28.3276V44.1669H41.1208V51.2336ZM10.0517 17.6669H21.0173V19.4336H10.0517V17.6669ZM10.0517 21.2002H21.0173V22.9669H10.0517V21.2002ZM10.0517 24.7336H21.0173V26.5002H10.0517V24.7336ZM41.1208 30.0336H10.0517V28.2669H41.1208V30.0336Z" fill="white"/>
        <path d="M38.2395 24.7334H39.2931V10.6001H24.6724V24.7334H25.726L26.1938 22.0207C26.3384 21.1921 26.6875 20.4093 27.2115 19.7387C27.7354 19.0682 28.4189 18.5296 29.2039 18.1685C28.6417 17.5373 28.331 16.733 28.3275 15.9001C28.3275 13.9515 29.9669 12.3668 31.9827 12.3668C33.9986 12.3668 35.6379 13.9515 35.6379 15.9001C35.6345 16.733 35.3237 17.5373 34.7616 18.1685C35.5466 18.5296 36.23 19.0682 36.754 19.7387C37.278 20.4093 37.627 21.1921 37.7716 22.0207L38.2395 24.7334Z" fill="white"/>
        <path d="M52.9927 45.9264L47.7146 2.61742C47.6995 2.49102 47.6585 2.36879 47.5941 2.25784C47.5297 2.14688 47.4431 2.0494 47.3393 1.97108C47.2356 1.89275 47.1168 1.83513 46.9899 1.80158C46.8629 1.76802 46.7303 1.75919 46.5998 1.7756L22.8447 4.94323V5.3001H42.9482C43.9562 5.3001 44.7758 6.09245 44.7758 7.06677V48.4085L52.0697 47.1268C52.3523 47.0771 52.6048 46.9254 52.7762 46.7026C52.9475 46.4797 53.0249 46.2023 52.9927 45.9264Z" fill="white"/>
        </svg>