<svg width="33" height="33" viewBox="0 0 33 33" fill="none" xmlns="http://www.w3.org/2000/svg">
<path fill-rule="evenodd" clip-rule="evenodd" d="M2.37547 4.63355H19.632L19.5829 4.65264C19.3927 4.72616 19.2222 4.84367 19.0852 4.99573C18.9481 5.1478 18.8483 5.33018 18.7937 5.52823H2.31586C1.52757 5.52823 0.886401 6.17532 0.886401 6.97104V21.6765C0.886401 22.4039 1.47195 22.9949 2.19266 22.9949H21.464C21.7291 23.3311 22.0357 23.6318 22.3762 23.8896C21.1817 24.3271 20.0955 25.021 19.1925 25.9234H2.37547C1.069 25.9234 0 24.8444 0 23.5257V7.03113C0 5.71247 1.069 4.63355 2.37547 4.63355ZM18.2502 27.0336H11.1442V28.6224H17.3469C17.5923 28.0625 17.8951 27.53 18.2502 27.0336ZM25.3542 15.9686C23.2173 15.9686 21.4849 17.7171 21.4849 19.874C21.4849 22.0309 23.2173 23.7793 25.3542 23.7793C27.4911 23.7793 29.2234 22.0309 29.2234 19.874C29.2234 17.7172 27.4911 15.9686 25.3542 15.9686ZM18.1382 31.3663L32.57 31.3662C32.6198 31.3664 32.6691 31.3557 32.7144 31.3347C32.7597 31.3137 32.7999 31.283 32.8322 31.2448C32.8645 31.2065 32.8882 31.1616 32.9015 31.1131C32.9149 31.0647 32.9176 31.0139 32.9095 30.9642C32.3245 27.2845 29.1647 24.4732 25.3542 24.4732C21.5435 24.4732 18.3838 27.2845 17.7988 30.9643C17.7907 31.0139 17.7934 31.0647 17.8067 31.1132C17.8201 31.1616 17.8437 31.2066 17.8761 31.2448C17.9084 31.2831 17.9486 31.3138 17.9939 31.3348C18.0392 31.3558 18.0884 31.3665 18.1382 31.3663ZM32.8681 5.68874L32.0108 5.35565C31.9799 5.34416 31.9523 5.32516 31.9304 5.30034C31.9085 5.27552 31.8929 5.24563 31.8852 5.21333C31.7537 4.69897 31.5511 4.20585 31.2835 3.74845C31.2663 3.72006 31.2564 3.68785 31.2545 3.65465C31.2526 3.62146 31.2588 3.5883 31.2726 3.55811L31.6458 2.7102C31.6632 2.67185 31.6685 2.62902 31.6608 2.58754C31.6532 2.54607 31.6331 2.50799 31.6032 2.4785L30.5446 1.41007C30.5154 1.37991 30.4777 1.35959 30.4366 1.35189C30.3955 1.34418 30.3531 1.34948 30.3151 1.36704L29.4746 1.74378C29.4447 1.75771 29.4119 1.76399 29.379 1.76208C29.3461 1.76017 29.3142 1.75012 29.2861 1.73281C28.833 1.46279 28.3446 1.25842 27.8352 1.1257C27.8032 1.11787 27.7736 1.10221 27.749 1.0801C27.7244 1.05799 27.7056 1.03011 27.6942 0.998917L27.3642 0.133385C27.3496 0.0938552 27.3233 0.059831 27.2888 0.03596C27.2544 0.012089 27.2134 -0.000464809 27.1717 1.31584e-05H25.6747C25.6329 -0.000464809 25.592 0.012089 25.5575 0.03596C25.5231 0.059831 25.4968 0.0938552 25.4822 0.133385L25.152 0.998917C25.1407 1.03011 25.1219 1.058 25.0973 1.08011C25.0727 1.10223 25.0431 1.11788 25.0111 1.1257C24.5017 1.25845 24.0133 1.46282 23.5602 1.73281C23.5321 1.75013 23.5001 1.7602 23.4673 1.76211C23.4344 1.76402 23.4015 1.75772 23.3716 1.74378L22.5311 1.36704C22.4931 1.34948 22.4507 1.34418 22.4096 1.35189C22.3685 1.35959 22.3308 1.37991 22.3016 1.41007L21.243 2.4785C21.2131 2.50799 21.193 2.54607 21.1854 2.58754C21.1777 2.62901 21.183 2.67184 21.2003 2.7102L21.5736 3.55839C21.5874 3.58858 21.5936 3.62173 21.5917 3.65493C21.5898 3.68812 21.5799 3.72034 21.5627 3.74873C21.2952 4.20607 21.0927 4.69909 20.9611 5.21333C20.9534 5.24563 20.9379 5.2755 20.916 5.30031C20.8941 5.32512 20.8664 5.34411 20.8355 5.35558L19.9781 5.68874C19.9389 5.70345 19.9052 5.72999 19.8816 5.76476C19.8579 5.79952 19.8455 5.8408 19.8459 5.88297V7.39392C19.8459 7.48177 19.8969 7.55664 19.9781 7.58821L20.8353 7.92123C20.8662 7.93272 20.8938 7.9517 20.9158 7.97651C20.9377 8.00132 20.9532 8.03119 20.9609 8.06348C21.0925 8.57783 21.295 9.07095 21.5626 9.52836C21.5976 9.58817 21.6014 9.65528 21.5734 9.7187L21.2003 10.5666C21.1829 10.605 21.1777 10.6478 21.1853 10.6893C21.1929 10.7307 21.2131 10.7688 21.243 10.7983L22.3015 11.8667C22.3307 11.8969 22.3684 11.9172 22.4095 11.9249C22.4506 11.9327 22.4931 11.9274 22.5311 11.9098L23.3715 11.5331C23.4014 11.5192 23.4343 11.5129 23.4672 11.5148C23.5 11.5167 23.5319 11.5268 23.5601 11.5441C24.0131 11.8141 24.5015 12.0184 25.011 12.1512C25.0776 12.1685 25.1272 12.2132 25.1519 12.278L25.482 13.1435C25.4966 13.183 25.5229 13.217 25.5573 13.2409C25.5918 13.2648 25.6327 13.2773 25.6745 13.2769H27.1714C27.2132 13.2773 27.2542 13.2648 27.2886 13.2409C27.3231 13.217 27.3494 13.183 27.364 13.1434L27.6939 12.2782C27.7053 12.247 27.7241 12.2191 27.7487 12.197C27.7733 12.1749 27.8029 12.1592 27.8349 12.1514C28.3445 12.0187 28.8331 11.8142 29.2862 11.5441C29.3143 11.5267 29.3463 11.5167 29.3791 11.5148C29.412 11.5129 29.4449 11.5192 29.4748 11.5331L30.3149 11.9097C30.3529 11.9273 30.3953 11.9326 30.4364 11.9249C30.4775 11.9172 30.5152 11.8968 30.5444 11.8667L31.603 10.7982C31.6329 10.7688 31.653 10.7307 31.6606 10.6892C31.6683 10.6477 31.6631 10.6049 31.6457 10.5665L31.2724 9.71822C31.2586 9.68802 31.2523 9.65487 31.2542 9.62167C31.2561 9.58848 31.2661 9.55626 31.2832 9.52787C31.5507 9.07057 31.7532 8.5776 31.8847 8.06341C31.8925 8.03112 31.908 8.00124 31.9299 7.97643C31.9518 7.95162 31.9794 7.93264 32.0103 7.92116L32.8678 7.58801C32.907 7.57329 32.9407 7.54673 32.9644 7.51196C32.988 7.47718 33.0005 7.43589 33 7.39371V5.88276C33.0005 5.84062 32.9881 5.79935 32.9645 5.76461C32.9409 5.72987 32.9072 5.70337 32.8681 5.68874ZM26.4231 9.77213C24.7083 9.77213 23.3185 8.3693 23.3185 6.63851C23.3185 4.90765 24.7083 3.50482 26.4231 3.50482C28.1379 3.50482 29.5278 4.90765 29.5278 6.63851C29.5277 8.3693 28.1379 9.77213 26.4231 9.77213ZM4.95265 32.9999V31.3662C4.95265 30.4677 5.86421 29.7326 6.97839 29.7326H16.9472C16.8477 30.0794 16.7693 30.432 16.7125 30.7884C16.5716 31.6745 17.249 32.4766 18.1382 32.4766H25.9471V33L4.95265 32.9999ZM28.5627 13.0914L28.3907 13.5424C28.2962 13.7914 28.1291 14.0054 27.9114 14.1563C27.6937 14.3072 27.4357 14.3877 27.1716 14.3873H25.6746C25.1327 14.3873 24.6502 14.053 24.4555 13.5424L24.2834 13.091C23.9862 12.9906 23.6964 12.8693 23.4161 12.728L22.9777 12.9246C22.7364 13.0325 22.4684 13.0641 22.2089 13.0155C21.9495 12.9668 21.7106 12.8401 21.5238 12.652L20.4652 11.5836C20.2788 11.395 20.1533 11.1539 20.1051 10.892C20.0569 10.6302 20.0883 10.3597 20.1951 10.1161L20.3897 9.67394C20.2497 9.3908 20.1295 9.09813 20.0299 8.79807L19.583 8.62445C19.3364 8.52912 19.1243 8.36041 18.9748 8.14067C18.8253 7.92093 18.7455 7.66053 18.7459 7.39399V6.63851H2.31586C2.22856 6.63877 2.14491 6.67388 2.08318 6.73619C2.02145 6.79849 1.98666 6.88293 1.98641 6.97104V21.6765C1.98641 21.7911 2.07909 21.8847 2.19266 21.8847L20.7995 21.8819C20.5254 21.2487 20.3842 20.565 20.3849 19.874C20.3849 17.1039 22.6097 14.8584 25.3541 14.8584C26.7244 14.8584 27.9474 15.3995 28.9133 16.3744V12.9619C28.7976 13.0083 28.6807 13.0515 28.5627 13.0914ZM16.7725 19.957H4.70061C4.55474 19.957 4.41485 19.8985 4.3117 19.7944C4.20855 19.6903 4.15061 19.5491 4.15061 19.4019C4.15061 19.2546 4.20855 19.1134 4.3117 19.0093C4.41485 18.9052 4.55474 18.8467 4.70061 18.8467V14.7176C4.70061 14.5647 4.82416 14.44 4.97561 14.44H6.98801C7.13947 14.44 7.26301 14.5647 7.26301 14.7176V18.8467H9.45863V12.1179C9.45863 11.9651 9.58217 11.8404 9.73363 11.8404H11.7461C11.8976 11.8404 12.0211 11.9651 12.0211 12.1179V18.8467H14.2167V9.40331C14.2167 9.25044 14.3403 9.12574 14.4917 9.12574H16.5041C16.6556 9.12574 16.7791 9.25044 16.7791 9.40331V18.8468C16.9241 18.849 17.0623 18.909 17.1637 19.0136C17.2651 19.1181 17.3215 19.2589 17.3206 19.4052C17.3198 19.5515 17.2617 19.6916 17.159 19.7949C17.0564 19.8982 16.9175 19.9565 16.7725 19.957ZM30.0133 12.9794C30.3047 13.0698 30.6182 13.0548 30.8997 12.9369V23.5256C30.8997 24.0732 30.7153 24.5792 30.4062 24.9841C29.7664 24.5273 29.0687 24.1592 28.3319 23.8895C28.7375 23.5826 29.0945 23.2151 29.3905 22.7997C29.8133 22.5368 30.0133 22.1136 30.0133 21.6214C30.2183 21.0621 30.3232 20.4704 30.3233 19.874C30.3239 19.2776 30.2189 18.6859 30.0133 18.1268L30.0133 12.9794Z" fill="url(#paint0_linear_629_1574)"/>
<defs>
<linearGradient id="paint0_linear_629_1574" x1="3.67331" y1="31.5557" x2="32.2075" y2="3.2771" gradientUnits="userSpaceOnUse">
<stop stop-color="#FFE075"/>
<stop offset="1" stop-color="white"/>
</linearGradient>
</defs>
</svg>
