<svg width="48" height="53" viewBox="0 0 48 53" fill="none" xmlns="http://www.w3.org/2000/svg">
<path d="M21.9174 11C21.6741 11 21.4407 11.0984 21.2687 11.2735C21.0967 11.4486 21 11.686 21 11.9337V28.7395C21 28.987 21.0967 29.2245 21.2687 29.3996L30.4433 38.7361C30.6161 38.907 30.8482 39.0017 31.0892 39C31.3302 38.9982 31.5608 38.9 31.7312 38.7266C31.9016 38.5531 31.9981 38.3184 32 38.0731C32.0017 37.8279 31.9086 37.5918 31.7406 37.4159L22.8349 28.3529V11.9337C22.8349 11.686 22.7382 11.4486 22.5662 11.2735C22.3941 11.0984 22.1607 11 21.9174 11Z" fill="white"/>
<mask id="path-2-inside-1_658_1630" fill="white">
<path d="M21.4325 3.48417e-05C16.352 -0.00820645 11.3766 1.44573 7.10136 4.18798L3.49513 0.285002C3.3812 0.161568 3.23445 0.0731101 3.07203 0.0299839C2.90961 -0.0131424 2.73825 -0.00915353 2.57803 0.0414859C2.41778 0.0922255 2.27527 0.187441 2.16714 0.316027C2.059 0.444613 1.98969 0.60127 1.9673 0.76772L0.197041 14.0322C0.179178 14.1676 0.192823 14.3051 0.236925 14.4342C0.281028 14.5633 0.354392 14.6805 0.451291 14.7767C0.548326 14.8728 0.666248 14.9451 0.795871 14.9881C0.925494 15.0311 1.06331 15.0436 1.19856 15.0246L13.5903 13.2559C13.7499 13.2328 13.9001 13.1666 14.0247 13.0645C14.1494 12.9625 14.2438 12.8283 14.2977 12.6766C14.3519 12.5247 14.3633 12.361 14.3309 12.2032C14.2986 12.0452 14.2236 11.8992 14.1141 11.781L10.7806 8.17376C18.5112 3.69101 28.2232 4.52214 35.0777 10.2529C41.9321 15.9836 44.4631 25.3879 41.4092 33.7801C38.3558 42.1725 30.3705 47.7576 21.4325 47.7524H21.4216C20.7228 47.7524 19.9691 47.754 19.275 47.6695C19.1596 47.6555 19.0979 47.6199 18.9858 47.6512C18.8739 47.6824 18.7692 47.7354 18.6777 47.8071C18.5862 47.8788 18.5097 47.9678 18.4527 48.0691C18.3956 48.1702 18.3591 48.2817 18.3452 48.3971C18.3312 48.5123 18.3401 48.6293 18.3714 48.7412C18.4027 48.853 18.4557 48.9577 18.5275 49.0491C18.5993 49.1405 18.6884 49.2169 18.7897 49.2738C18.891 49.3308 19.0026 49.3672 19.1181 49.381C19.5358 49.4318 19.9552 49.4688 20.3754 49.492C20.7229 49.5111 21.071 49.5208 21.419 49.521H21.4325C24.9679 49.5238 28.3637 48.7195 31.4118 47.2563C36.8334 44.6538 41.1551 39.9665 43.2059 34.0275C46.4098 24.7492 43.3653 14.4624 35.6261 8.41695C27.8872 2.3714 17.1602 1.90029 8.92052 7.24413C8.81275 7.31449 8.72159 7.40744 8.65338 7.51653C8.58517 7.62562 8.54155 7.74824 8.52553 7.87586C8.50969 8.0035 8.5219 8.13307 8.56131 8.2555C8.6007 8.37795 8.66635 8.49035 8.75368 8.58485L11.6748 11.7438L2.10659 13.1109L3.47311 2.86882L6.30574 5.94101C6.4498 6.09723 6.64533 6.19642 6.85657 6.22045C7.06782 6.24448 7.28066 6.19175 7.45619 6.07188C16.2509 0.0807252 27.892 0.369228 36.3785 6.78861C44.8646 13.2076 48.3005 24.324 44.9143 34.4059C42.7586 40.8247 38.1441 45.9116 32.3284 48.7622C29.7349 50.0335 26.9024 50.86 23.9427 51.1615C23.1151 51.2458 22.2776 51.2891 21.4325 51.2896C20.2928 51.29 19.1548 51.2121 18.0255 51.0582C17.7951 51.0302 17.5628 51.0939 17.3789 51.2356C17.1951 51.3771 17.0743 51.5853 17.0426 51.8151C17.011 52.0449 17.0709 52.278 17.2095 52.464C17.3482 52.6501 17.5416 52.7117 17.771 52.7473C27.597 54.1001 37.3708 49.9321 43.0952 41.8395C48.8196 33.7473 49.5521 23.1422 44.995 14.3405C40.4379 5.53897 31.3508 0.0086568 21.4325 3.48417e-05Z"/>
<path d="M32.3332 48.77C29.6441 50.0834 26.8034 50.8731 23.9427 51.1615C16.6305 51.8987 9.18782 49.3606 3.81245 43.921C3.01188 43.1105 2.26832 42.2464 1.58519 41.3349C1.44326 41.1513 1.23481 41.0309 1.00477 40.9995C0.909294 40.9865 0.813279 40.9893 0.720324 41.0069C0.589323 41.0317 0.464399 41.086 0.355619 41.1673C0.169578 41.306 0.0455555 41.5123 0.0102802 41.7416C-0.0249951 41.9709 0.0312998 42.2048 0.16703 42.393C6.10223 50.3326 15.9191 54.2538 25.706 52.6437L32.3332 48.77Z"/>
<path d="M30.318 45.8373C22.193 49.5579 12.6056 47.7991 6.33342 41.4373L6.3258 41.4297C5.83513 40.9325 5.37518 40.4056 4.94812 39.8525C4.87703 39.7606 4.7885 39.6836 4.68761 39.6259C4.58671 39.5682 4.47542 39.5309 4.3601 39.5161C4.24478 39.5014 4.12767 39.5095 4.01548 39.54C3.9033 39.5705 3.79823 39.6228 3.70627 39.6939C3.61425 39.7648 3.53715 39.8533 3.47936 39.9541C3.42159 40.0549 3.38425 40.1661 3.36952 40.2813C3.35478 40.3966 3.36293 40.5136 3.39349 40.6257C3.42406 40.7377 3.47643 40.8427 3.54763 40.9345C4.01733 41.5426 4.52394 42.1223 5.06347 42.6696L5.07295 42.6792C9.22756 46.895 14.7236 49.2299 20.3754 49.492C24.0994 49.6646 27.8911 48.9373 31.411 47.255L30.318 45.8373Z"/>
<path d="M21.419 49.521C21.071 49.5208 20.7229 49.5111 20.3754 49.492C14.7236 49.2299 9.22756 46.895 5.07295 42.6792L5.06347 42.6696C4.52394 42.1223 4.01733 41.5426 3.54763 40.9345C3.47643 40.8427 3.42406 40.7377 3.39349 40.6257C3.36293 40.5136 3.35478 40.3966 3.36952 40.2813C3.38425 40.1661 3.42159 40.0549 3.47936 39.9541C3.53715 39.8533 3.61425 39.7648 3.70627 39.6939L0.720324 41.0069C0.813279 40.9893 0.909294 40.9865 1.00477 40.9995C1.23481 41.0309 1.44326 41.1513 1.58519 41.3349C2.26832 42.2464 3.01188 43.1105 3.81245 43.921C9.18782 49.3606 16.6305 51.8987 23.9427 51.1615C26.9024 50.86 29.7349 50.0335 32.3284 48.7622L31.4118 47.2563C28.3637 48.7195 24.9679 49.5238 21.4325 49.521H21.419Z"/>
<path d="M35.6261 8.41695C43.3653 14.4624 46.4098 24.7492 43.2059 34.0275C41.1551 39.9665 36.8334 44.6538 31.4118 47.2563L32.3284 48.7622C38.1441 45.9116 42.7586 40.8247 44.9143 34.4059C48.3005 24.324 44.8646 13.2076 36.3785 6.78861C27.892 0.369228 16.2509 0.0807252 7.45619 6.07188C7.28066 6.19175 7.06782 6.24448 6.85657 6.22045C6.64533 6.19642 6.4498 6.09723 6.30574 5.94101L3.47311 2.86882L2.10659 13.1109L11.6748 11.7438L8.75368 8.58485C8.66635 8.49035 8.6007 8.37795 8.56131 8.2555C8.5219 8.13307 8.50969 8.0035 8.52553 7.87586C8.54155 7.74824 8.58517 7.62562 8.65338 7.51653C8.72159 7.40744 8.81275 7.31449 8.92052 7.24413C17.1602 1.90029 27.8872 2.3714 35.6261 8.41695Z"/>
</mask>
<path d="M21.4325 3.48417e-05C16.352 -0.00820645 11.3766 1.44573 7.10136 4.18798L3.49513 0.285002C3.3812 0.161568 3.23445 0.0731101 3.07203 0.0299839C2.90961 -0.0131424 2.73825 -0.00915353 2.57803 0.0414859C2.41778 0.0922255 2.27527 0.187441 2.16714 0.316027C2.059 0.444613 1.98969 0.60127 1.9673 0.76772L0.197041 14.0322C0.179178 14.1676 0.192823 14.3051 0.236925 14.4342C0.281028 14.5633 0.354392 14.6805 0.451291 14.7767C0.548326 14.8728 0.666248 14.9451 0.795871 14.9881C0.925494 15.0311 1.06331 15.0436 1.19856 15.0246L13.5903 13.2559C13.7499 13.2328 13.9001 13.1666 14.0247 13.0645C14.1494 12.9625 14.2438 12.8283 14.2977 12.6766C14.3519 12.5247 14.3633 12.361 14.3309 12.2032C14.2986 12.0452 14.2236 11.8992 14.1141 11.781L10.7806 8.17376C18.5112 3.69101 28.2232 4.52214 35.0777 10.2529C41.9321 15.9836 44.4631 25.3879 41.4092 33.7801C38.3558 42.1725 30.3705 47.7576 21.4325 47.7524H21.4216C20.7228 47.7524 19.9691 47.754 19.275 47.6695C19.1596 47.6555 19.0979 47.6199 18.9858 47.6512C18.8739 47.6824 18.7692 47.7354 18.6777 47.8071C18.5862 47.8788 18.5097 47.9678 18.4527 48.0691C18.3956 48.1702 18.3591 48.2817 18.3452 48.3971C18.3312 48.5123 18.3401 48.6293 18.3714 48.7412C18.4027 48.853 18.4557 48.9577 18.5275 49.0491C18.5993 49.1405 18.6884 49.2169 18.7897 49.2738C18.891 49.3308 19.0026 49.3672 19.1181 49.381C19.5358 49.4318 19.9552 49.4688 20.3754 49.492C20.7229 49.5111 21.071 49.5208 21.419 49.521H21.4325C24.9679 49.5238 28.3637 48.7195 31.4118 47.2563C36.8334 44.6538 41.1551 39.9665 43.2059 34.0275C46.4098 24.7492 43.3653 14.4624 35.6261 8.41695C27.8872 2.3714 17.1602 1.90029 8.92052 7.24413C8.81275 7.31449 8.72159 7.40744 8.65338 7.51653C8.58517 7.62562 8.54155 7.74824 8.52553 7.87586C8.50969 8.0035 8.5219 8.13307 8.56131 8.2555C8.6007 8.37795 8.66635 8.49035 8.75368 8.58485L11.6748 11.7438L2.10659 13.1109L3.47311 2.86882L6.30574 5.94101C6.4498 6.09723 6.64533 6.19642 6.85657 6.22045C7.06782 6.24448 7.28066 6.19175 7.45619 6.07188C16.2509 0.0807252 27.892 0.369228 36.3785 6.78861C44.8646 13.2076 48.3005 24.324 44.9143 34.4059C42.7586 40.8247 38.1441 45.9116 32.3284 48.7622C29.7349 50.0335 26.9024 50.86 23.9427 51.1615C23.1151 51.2458 22.2776 51.2891 21.4325 51.2896C20.2928 51.29 19.1548 51.2121 18.0255 51.0582C17.7951 51.0302 17.5628 51.0939 17.3789 51.2356C17.1951 51.3771 17.0743 51.5853 17.0426 51.8151C17.011 52.0449 17.0709 52.278 17.2095 52.464C17.3482 52.6501 17.5416 52.7117 17.771 52.7473C27.597 54.1001 37.3708 49.9321 43.0952 41.8395C48.8196 33.7473 49.5521 23.1422 44.995 14.3405C40.4379 5.53897 31.3508 0.0086568 21.4325 3.48417e-05Z" fill="white"/>
<path d="M32.3332 48.77C29.6441 50.0834 26.8034 50.8731 23.9427 51.1615C16.6305 51.8987 9.18782 49.3606 3.81245 43.921C3.01188 43.1105 2.26832 42.2464 1.58519 41.3349C1.44326 41.1513 1.23481 41.0309 1.00477 40.9995C0.909294 40.9865 0.813279 40.9893 0.720324 41.0069C0.589323 41.0317 0.464399 41.086 0.355619 41.1673C0.169578 41.306 0.0455555 41.5123 0.0102802 41.7416C-0.0249951 41.9709 0.0312998 42.2048 0.16703 42.393C6.10223 50.3326 15.9191 54.2538 25.706 52.6437L32.3332 48.77Z" fill="white"/>
<path d="M30.318 45.8373C22.193 49.5579 12.6056 47.7991 6.33342 41.4373L6.3258 41.4297C5.83513 40.9325 5.37518 40.4056 4.94812 39.8525C4.87703 39.7606 4.7885 39.6836 4.68761 39.6259C4.58671 39.5682 4.47542 39.5309 4.3601 39.5161C4.24478 39.5014 4.12767 39.5095 4.01548 39.54C3.9033 39.5705 3.79823 39.6228 3.70627 39.6939C3.61425 39.7648 3.53715 39.8533 3.47936 39.9541C3.42159 40.0549 3.38425 40.1661 3.36952 40.2813C3.35478 40.3966 3.36293 40.5136 3.39349 40.6257C3.42406 40.7377 3.47643 40.8427 3.54763 40.9345C4.01733 41.5426 4.52394 42.1223 5.06347 42.6696L5.07295 42.6792C9.22756 46.895 14.7236 49.2299 20.3754 49.492C24.0994 49.6646 27.8911 48.9373 31.411 47.255L30.318 45.8373Z" fill="white"/>
<path d="M21.419 49.521C21.071 49.5208 20.7229 49.5111 20.3754 49.492C14.7236 49.2299 9.22756 46.895 5.07295 42.6792L5.06347 42.6696C4.52394 42.1223 4.01733 41.5426 3.54763 40.9345C3.47643 40.8427 3.42406 40.7377 3.39349 40.6257C3.36293 40.5136 3.35478 40.3966 3.36952 40.2813C3.38425 40.1661 3.42159 40.0549 3.47936 39.9541C3.53715 39.8533 3.61425 39.7648 3.70627 39.6939L0.720324 41.0069C0.813279 40.9893 0.909294 40.9865 1.00477 40.9995C1.23481 41.0309 1.44326 41.1513 1.58519 41.3349C2.26832 42.2464 3.01188 43.1105 3.81245 43.921C9.18782 49.3606 16.6305 51.8987 23.9427 51.1615C26.9024 50.86 29.7349 50.0335 32.3284 48.7622L31.4118 47.2563C28.3637 48.7195 24.9679 49.5238 21.4325 49.521H21.419Z" fill="white"/>
<path d="M35.6261 8.41695C43.3653 14.4624 46.4098 24.7492 43.2059 34.0275C41.1551 39.9665 36.8334 44.6538 31.4118 47.2563L32.3284 48.7622C38.1441 45.9116 42.7586 40.8247 44.9143 34.4059C48.3005 24.324 44.8646 13.2076 36.3785 6.78861C27.892 0.369228 16.2509 0.0807252 7.45619 6.07188C7.28066 6.19175 7.06782 6.24448 6.85657 6.22045C6.64533 6.19642 6.4498 6.09723 6.30574 5.94101L3.47311 2.86882L2.10659 13.1109L11.6748 11.7438L8.75368 8.58485C8.66635 8.49035 8.6007 8.37795 8.56131 8.2555C8.5219 8.13307 8.50969 8.0035 8.52553 7.87586C8.54155 7.74824 8.58517 7.62562 8.65338 7.51653C8.72159 7.40744 8.81275 7.31449 8.92052 7.24413C17.1602 1.90029 27.8872 2.3714 35.6261 8.41695Z" fill="white"/>
<path d="M21.419 49.521L21.4136 57.521H21.419V49.521ZM21.4325 49.521L21.4388 41.521H21.4325V49.521ZM43.2059 34.0275L50.7677 36.6387L50.7677 36.6387L43.2059 34.0275ZM35.6261 8.41695L30.7012 14.7213L30.7013 14.7215L35.6261 8.41695ZM8.92052 7.24413L4.56744 0.532149L4.55741 0.538656L4.5474 0.545192L8.92052 7.24413ZM8.52553 7.87586L0.587783 6.87973L0.586423 6.89069L8.52553 7.87586ZM8.56131 8.2555L16.1769 5.80536L16.1766 5.80459L8.56131 8.2555ZM8.75368 8.58485L2.87824 14.0143L2.88007 14.0163L8.75368 8.58485ZM11.6748 11.7438L12.8063 19.6634L27.9002 17.5068L17.5484 6.31233L11.6748 11.7438ZM2.10659 13.1109L-5.82314 12.0529L-7.22031 22.5247L3.23812 21.0304L2.10659 13.1109ZM3.47311 2.86882L9.35462 -2.55408L-2.20195 -15.088L-4.45662 1.81082L3.47311 2.86882ZM6.30574 5.94101L0.424236 11.3639L0.424512 11.3642L6.30574 5.94101ZM6.85657 6.22045L5.95228 14.1692L5.95232 14.1692L6.85657 6.22045ZM7.45619 6.07188L2.95218 -0.539777L2.94457 -0.534578L7.45619 6.07188ZM36.3785 6.78861L31.5523 13.1689L31.5524 13.1689L36.3785 6.78861ZM44.9143 34.4059L37.3306 31.8588L37.3306 31.8589L44.9143 34.4059ZM3.81245 43.921L-1.87912 49.5429L-1.87791 49.5441L3.81245 43.921ZM1.58519 41.3349L7.98692 36.5372L7.95129 36.4897L7.91495 36.4427L1.58519 41.3349ZM1.00477 40.9995L2.08673 33.073L2.08319 33.0725L1.00477 40.9995ZM3.47936 39.9541L-3.45983 35.9732L-3.46191 35.9768L3.47936 39.9541ZM3.36952 40.2813L11.3049 41.2963L11.305 41.2956L3.36952 40.2813ZM3.39349 40.6257L-4.32501 42.7292L-4.32434 42.7317L3.39349 40.6257ZM3.54763 40.9345L9.87887 36.0442L9.87424 36.0382L9.8696 36.0322L3.54763 40.9345ZM5.06347 42.6696L10.7661 37.0589L10.7604 37.0531L5.06347 42.6696ZM5.07295 42.6792L-0.62972 48.2899L-0.625072 48.2946L5.07295 42.6792ZM20.3754 49.492L20.8154 41.5041L20.7807 41.5022L20.7459 41.5005L20.3754 49.492ZM0.720324 41.0069L-0.769582 33.1468L-1.66536 33.3166L-2.49996 33.6836L0.720324 41.0069ZM23.9427 51.1615L24.7451 59.1212L24.7535 59.1203L23.9427 51.1615ZM21.419 49.521V57.521H21.4325V49.521V41.521H21.419V49.521ZM43.2059 34.0275L50.7677 36.6387C55.0877 24.1282 50.9814 10.2602 40.5508 2.11244L35.6261 8.41695L30.7013 14.7215C35.7492 18.6646 37.7318 25.3701 35.644 31.4163L43.2059 34.0275ZM35.6261 8.41695L40.551 2.11257C30.1228 -6.03388 15.67 -6.66843 4.56744 0.532149L8.92052 7.24413L13.2736 13.9561C18.6503 10.469 25.6516 10.7767 30.7012 14.7213L35.6261 8.41695ZM8.92052 7.24413L4.5474 0.545192C3.46763 1.25008 2.55402 2.18161 1.8702 3.27526L8.65338 7.51653L15.4366 11.7578C14.8892 12.6333 14.1579 13.3789 13.2936 13.9431L8.92052 7.24413ZM8.65338 7.51653L1.8702 3.27526C1.18624 4.36913 0.748503 5.59908 0.587791 6.87973L8.52553 7.87586L16.4633 8.87198C16.3346 9.8974 15.9841 10.8821 15.4366 11.7578L8.65338 7.51653ZM8.52553 7.87586L0.586423 6.89069C0.427223 8.17362 0.549942 9.47584 0.945994 10.7064L8.56131 8.2555L16.1766 5.80459C16.4939 6.7903 16.5922 7.83337 16.4646 8.86103L8.52553 7.87586ZM8.56131 8.2555L0.945745 10.7056C1.34163 11.9361 2.00121 13.0653 2.87824 14.0143L8.75368 8.58485L14.6291 3.15537C15.3315 3.91544 15.8598 4.81976 16.1769 5.80536L8.56131 8.2555ZM8.75368 8.58485L2.88007 14.0163L5.80121 17.1752L11.6748 11.7438L17.5484 6.31233L14.6273 3.15339L8.75368 8.58485ZM11.6748 11.7438L10.5433 3.82422L0.97507 5.19129L2.10659 13.1109L3.23812 21.0304L12.8063 19.6634L11.6748 11.7438ZM2.10659 13.1109L10.0363 14.1689L11.4028 3.92682L3.47311 2.86882L-4.45662 1.81082L-5.82314 12.0529L2.10659 13.1109ZM3.47311 2.86882L-2.4084 8.29172L0.424236 11.3639L6.30574 5.94101L12.1873 0.518103L9.35462 -2.55408L3.47311 2.86882ZM6.30574 5.94101L0.424512 11.3642C1.87138 12.9333 3.83383 13.9282 5.95228 14.1692L6.85657 6.22045L7.76086 -1.72827C9.45683 -1.53533 11.0282 -0.738818 12.187 0.517804L6.30574 5.94101ZM6.85657 6.22045L5.95232 14.1692C8.07077 14.4102 10.206 13.8815 11.9678 12.6783L7.45619 6.07188L2.94457 -0.534578C4.3553 -1.49799 6.06487 -1.92121 7.76082 -1.72828L6.85657 6.22045ZM7.45619 6.07188L11.9602 12.6835C17.9176 8.62523 25.8042 8.82086 31.5523 13.1689L36.3785 6.78861L41.2047 0.40832C29.9798 -8.08241 14.5842 -8.46378 2.95218 -0.539773L7.45619 6.07188ZM36.3785 6.78861L31.5524 13.1689C37.2983 17.5152 39.6214 25.0382 37.3306 31.8588L44.9143 34.4059L52.498 36.9529C56.9795 23.6097 52.431 8.89995 41.2046 0.408275L36.3785 6.78861ZM3.81245 43.921L9.50402 38.2991C8.96088 37.7492 8.45426 37.1608 7.98692 36.5372L1.58519 41.3349L-4.81654 46.1326C-3.91762 47.3321 -2.93712 48.4718 -1.87912 49.5429L3.81245 43.921ZM1.58519 41.3349L7.91495 36.4427C6.48773 34.5961 4.39346 33.3878 2.08673 33.073L1.00477 40.9995L-0.0771918 48.926C-1.92385 48.6739 -3.60121 47.7065 -4.74456 46.2272L1.58519 41.3349ZM3.70627 39.6939L-1.17993 33.3594C-2.10675 34.0743 -2.88055 34.9634 -3.45983 35.9732L3.47936 39.9541L10.4186 43.935C9.95484 44.7433 9.33524 45.4553 8.59248 46.0283L3.70627 39.6939ZM3.47936 39.9541L-3.46191 35.9768C-4.04182 36.9889 -4.41762 38.1067 -4.56592 39.267L3.36952 40.2813L11.305 41.2956C11.1861 42.2255 10.885 43.1209 10.4206 43.9314L3.47936 39.9541ZM3.36952 40.2813L-4.56583 39.2663C-4.71419 40.4262 -4.63195 41.6029 -4.32501 42.7292L3.39349 40.6257L11.112 38.5222C11.3578 39.4242 11.4237 40.3669 11.3049 41.2963L3.36952 40.2813ZM3.39349 40.6257L-4.32434 42.7317C-4.01713 43.8575 -3.49078 44.9129 -2.77435 45.8368L3.54763 40.9345L9.8696 36.0322C10.4436 36.7725 10.8652 37.6179 11.1113 38.5197L3.39349 40.6257ZM3.54763 40.9345L-2.78361 45.8249C-2.11652 46.6885 -1.398 47.5106 -0.633507 48.286L5.06347 42.6696L10.7604 37.0531C10.4459 36.734 10.1512 36.3967 9.87887 36.0442L3.54763 40.9345ZM5.06347 42.6696L-0.639199 48.2802L-0.629718 48.2899L5.07295 42.6792L10.7756 37.0685L10.7661 37.0589L5.06347 42.6696ZM21.419 49.521L21.4245 41.521C21.2211 41.5209 21.0179 41.5152 20.8154 41.5041L20.3754 49.492L19.9353 57.4798C20.4278 57.507 20.9208 57.5207 21.4136 57.521L21.419 49.521ZM20.3754 49.492L20.7459 41.5005C17.0464 41.329 13.4709 39.8035 10.771 37.0638L5.07295 42.6792L-0.625072 48.2946C4.98423 53.9865 12.4009 57.1308 20.0048 57.4834L20.3754 49.492ZM0.720324 41.0069L2.21023 48.8669C1.46357 49.0085 0.692322 49.0307 -0.0736474 48.9265L1.00477 40.9995L2.08319 33.0725C1.12627 32.9423 0.162992 32.9701 -0.769582 33.1468L0.720324 41.0069ZM3.81245 43.921L-1.87791 49.5441C5.23557 56.7426 15.0815 60.0954 24.7451 59.1212L23.9427 51.1615L23.1402 43.2019C18.1796 43.702 13.1401 41.9786 9.50281 38.2978L3.81245 43.921ZM23.9427 51.1615L24.7535 59.1203C28.6701 58.7213 32.4188 57.6273 35.8495 55.9457L32.3284 48.7622L28.8074 41.5787C27.051 42.4397 25.1348 42.9986 23.1318 43.2027L23.9427 51.1615ZM32.3284 48.7622L39.162 44.6027L38.2454 43.0968L31.4118 47.2563L24.5782 51.4159L25.4948 52.9218L32.3284 48.7622ZM31.4118 47.2563L27.9498 40.0442C25.9625 40.9982 23.75 41.5228 21.4388 41.521L21.4325 49.521L21.4263 57.521C26.1858 57.5247 30.7649 56.4409 34.8739 54.4684L31.4118 47.2563ZM31.4118 47.2563L34.8739 54.4684C42.1727 50.9647 48.002 44.648 50.7677 36.6387L43.2059 34.0275L35.644 31.4163C34.3081 35.2849 31.4942 38.3428 27.9498 40.0443L31.4118 47.2563ZM0.355619 41.1673L3.57591 48.4905L3.94061 48.3301L0.720324 41.0069L-2.49996 33.6836L-2.86467 33.844L0.355619 41.1673ZM32.3332 48.77L39.1664 44.6099L39.1617 44.6021L32.3284 48.7622L25.4952 52.9223L25.4999 52.9301L32.3332 48.77ZM31.4118 47.2563L38.2447 43.0955L38.2438 43.0942L31.411 47.255L24.5781 51.4158L24.579 51.4171L31.4118 47.2563ZM44.9143 34.4059L37.3306 31.8589C35.8727 36.2 32.7533 39.6446 28.8074 41.5787L32.3284 48.7622L35.8495 55.9457C43.5349 52.1786 49.6445 45.4495 52.4981 36.9528L44.9143 34.4059ZM18.0255 51.0582L24.7287 55.4248L25.8212 53.7477L19.1181 49.381L12.4149 45.0143L11.3224 46.6915L18.0255 51.0582ZM21.4325 3.48417e-05L21.4066 16L21.4186 16L21.4325 3.48417e-05ZM7.10136 4.18798L-4.65027 15.0461L4.45114 24.8965L15.7398 17.6556L7.10136 4.18798ZM3.49513 0.285002L-8.26203 11.1372L-8.2565 11.1431L3.49513 0.285002ZM3.07203 0.0299839L7.17825 -15.4341L7.17802 -15.4342L3.07203 0.0299839ZM2.57803 0.0414859L-2.2437 -15.2147L-2.2518 -15.2121L2.57803 0.0414859ZM1.9673 0.76772L-13.8898 -1.36572L-13.891 -1.35728L-13.8921 -1.34885L1.9673 0.76772ZM0.197041 14.0322L-15.6623 11.9157L-15.6639 11.9272L-15.6654 11.9387L0.197041 14.0322ZM0.451291 14.7767L-10.8195 26.1332L-10.8124 26.1402L-10.8054 26.1472L0.451291 14.7767ZM0.795871 14.9881L-4.24255 30.1741L-4.24251 30.1741L0.795871 14.9881ZM1.19856 15.0246L3.4203 30.8696L3.43979 30.8669L3.45928 30.8641L1.19856 15.0246ZM13.5903 13.2559L15.851 29.0954L15.8676 29.0931L15.8841 29.0907L13.5903 13.2559ZM14.2977 12.6766L-0.772499 7.30181L-0.77518 7.30932L-0.777852 7.31684L14.2977 12.6766ZM14.3309 12.2032L-1.34337 15.4151L-1.34295 15.4171L14.3309 12.2032ZM14.1141 11.781L2.36345 22.6401L2.37142 22.6488L14.1141 11.781ZM10.7806 8.17376L2.75444 -5.66751L-14.5327 4.35682L-0.970096 19.0329L10.7806 8.17376ZM35.0777 10.2529L45.3404 -2.02219L45.3403 -2.02224L35.0777 10.2529ZM41.4092 33.7801L26.3738 28.3088L26.3735 28.3097L41.4092 33.7801ZM21.4325 47.7524L21.4418 31.7524H21.4325V47.7524ZM19.275 47.6695L21.2102 31.7869L21.1998 31.7857L19.275 47.6695ZM18.9858 47.6512L23.2814 63.0638L23.2909 63.0612L18.9858 47.6512ZM18.4527 48.0691L32.3887 55.9297L32.3921 55.9236L18.4527 48.0691ZM18.3452 48.3971L34.2284 50.3271L34.2294 50.3192L34.2303 50.3113L18.3452 48.3971ZM18.3714 48.7412L2.9598 53.0405L2.96217 53.049L2.96454 53.0574L18.3714 48.7412ZM18.7897 49.2738L26.6331 35.3281L26.6222 35.322L18.7897 49.2738ZM19.1181 49.381L21.0504 33.4981L21.0326 33.496L21.0148 33.4938L19.1181 49.381ZM21.4325 51.2896L21.4384 67.2896L21.4416 67.2896L21.4325 51.2896ZM18.0255 51.0582L20.1874 35.2049L20.0707 35.189L19.9538 35.1748L18.0255 51.0582ZM17.3789 51.2356L27.1417 63.9118L27.1427 63.9111L17.3789 51.2356ZM17.0426 51.8151L1.19221 49.6324L1.19208 49.6334L17.0426 51.8151ZM17.2095 52.464L30.0395 42.9041L30.0369 42.9006L17.2095 52.464ZM17.771 52.7473L15.3145 68.5576L15.4515 68.5789L15.5888 68.5978L17.771 52.7473ZM43.0952 41.8395L30.0331 32.5993L30.0328 32.5997L43.0952 41.8395ZM44.995 14.3405L59.2035 6.98401L59.2035 6.98395L44.995 14.3405ZM32.3332 48.77L40.4073 62.5834L25.3114 34.3931L32.3332 48.77ZM0.355619 41.1673L9.92157 53.9927L9.92859 53.9875L0.355619 41.1673ZM0.0102802 41.7416L-15.8036 39.308L-15.8037 39.3091L0.0102802 41.7416ZM0.16703 42.393L-12.8099 51.7524L-12.7299 51.8633L-12.6481 51.9728L0.16703 42.393ZM25.706 52.6437L28.3033 68.4315L31.2244 67.9509L33.7801 66.457L25.706 52.6437ZM30.318 45.8373L42.9894 36.0681L35.2224 25.9938L23.6566 31.29L30.318 45.8373ZM6.33342 41.4373L17.7271 30.2042L17.7071 30.1838L17.6869 30.1636L6.33342 41.4373ZM6.3258 41.4297L-5.06136 52.6694L-5.04457 52.6864L-5.02773 52.7034L6.3258 41.4297ZM4.94812 39.8525L17.6121 30.0738L17.6043 30.0637L4.94812 39.8525ZM4.01548 39.54L-0.177708 24.0992L-0.191347 24.1029L4.01548 39.54ZM3.70627 39.6939L10.1468 54.3403L11.9414 53.5512L13.4925 52.3521L3.70627 39.6939ZM31.411 47.255L38.3105 61.6909L56.1648 53.1576L44.0823 37.4858L31.411 47.255ZM20.3754 49.492L19.4953 65.4677L19.5648 65.4716L19.6343 65.4748L20.3754 49.492ZM0.720324 41.0069L3.70009 56.727L5.49166 56.3874L7.16087 55.6534L0.720324 41.0069ZM23.9427 51.1615L22.3378 35.2422L22.3294 35.243L22.321 35.2439L23.9427 51.1615ZM21.4325 3.48417e-05L21.4585 -15.9999C13.3076 -16.0132 5.32414 -13.6806 -1.53711 -9.27964L7.10136 4.18798L15.7398 17.6556C17.4291 16.5721 19.3965 15.9968 21.4066 16L21.4325 3.48417e-05ZM7.10136 4.18798L18.853 -6.67016L15.2468 -10.5731L3.49513 0.285002L-8.2565 11.1431L-4.65027 15.0461L7.10136 4.18798ZM3.49513 0.285002L15.2523 -10.5672C13.0771 -12.9237 10.2764 -14.6115 7.17825 -15.4341L3.07203 0.0299839L-1.03418 15.4941C-3.80749 14.7577 -6.31473 13.2468 -8.26202 11.1372L3.49513 0.285002ZM3.07203 0.0299839L7.17802 -15.4342C4.08062 -16.2566 0.812733 -16.1807 -2.2437 -15.2147L2.57803 0.0414859L7.39976 15.2977C4.66378 16.1624 1.7386 16.2303 -1.03395 15.4942L3.07203 0.0299839ZM2.57803 0.0414859L-2.2518 -15.2121C-5.30199 -14.2463 -8.01691 -12.4333 -10.0784 -9.98185L2.16714 0.316027L14.4127 10.6139C12.5675 12.8081 10.1376 14.4308 7.40786 15.2951L2.57803 0.0414859ZM2.16714 0.316027L-10.0784 -9.98185C-12.1398 -7.53057 -13.4624 -4.54248 -13.8898 -1.36572L1.9673 0.76772L17.8244 2.90116C17.4418 5.74502 16.2578 8.4198 14.4127 10.6139L2.16714 0.316027ZM1.9673 0.76772L-13.8921 -1.34885L-15.6623 11.9157L0.197041 14.0322L16.0564 16.1488L17.8267 2.88429L1.9673 0.76772ZM0.197041 14.0322L-15.6654 11.9387C-16.0058 14.5177 -15.7458 17.1417 -14.9043 19.6057L0.236925 14.4342L15.3781 9.26268C16.1315 11.4684 16.3641 13.8174 16.0595 16.1258L0.197041 14.0322ZM0.236925 14.4342L-14.9043 19.6057C-14.0629 22.0691 -12.6642 24.3024 -10.8195 26.1332L0.451291 14.7767L11.7221 3.42026C13.3729 5.05865 14.6249 7.0576 15.3781 9.26268L0.236925 14.4342ZM0.451291 14.7767L-10.8054 26.1472C-8.95579 27.9782 -6.70937 29.3557 -4.24255 30.1741L0.795871 14.9881L5.83429 -0.197878C8.04187 0.534554 10.0524 1.7673 11.7079 3.40623L0.451291 14.7767ZM0.795871 14.9881L-4.24251 30.1741C-1.77008 30.9944 0.852516 31.2296 3.4203 30.8696L1.19856 15.0246L-1.02319 -0.820405C1.2741 -1.14252 3.62106 -0.932178 5.83425 -0.19789L0.795871 14.9881ZM1.19856 15.0246L3.45928 30.8641L15.851 29.0954L13.5903 13.2559L11.3296 -2.58353L-1.06217 -0.814891L1.19856 15.0246ZM13.5903 13.2559L15.8841 29.0907C18.9259 28.65 21.7867 27.3881 24.1604 25.4447L14.0247 13.0645L3.88906 0.684395C6.0134 -1.05481 8.57379 -2.18436 11.2965 -2.57878L13.5903 13.2559ZM14.0247 13.0645L24.1604 25.4447C26.5413 23.4954 28.3433 20.9334 29.3733 18.0363L14.2977 12.6766L-0.777852 7.31684C0.144265 4.72315 1.75752 2.42949 3.88906 0.684395L14.0247 13.0645ZM14.2977 12.6766L29.368 18.0513C30.4064 15.1398 30.6233 12.0054 30.0048 8.98925L14.3309 12.2032L-1.34295 15.4171C-1.89669 12.7166 -1.70259 9.90968 -0.772499 7.30181L14.2977 12.6766ZM14.3309 12.2032L30.0052 8.99127C29.3862 5.9705 27.9517 3.17666 25.8569 0.913219L14.1141 11.781L2.37142 22.6488C0.495488 20.6218 -0.78909 18.12 -1.34337 15.4151L14.3309 12.2032ZM14.1141 11.781L25.8648 0.92184L22.5313 -2.68539L10.7806 8.17376L-0.970096 19.0329L2.36345 22.6401L14.1141 11.781ZM10.7806 8.17376L18.8068 22.015C20.7194 20.9059 23.1226 21.113 24.8151 22.528L35.0777 10.2529L45.3403 -2.02224C33.3237 -12.0688 16.303 -13.5239 2.75444 -5.66751L10.7806 8.17376ZM35.0777 10.2529L24.815 22.5279C26.5046 23.9405 27.1226 26.251 26.3738 28.3088L41.4092 33.7801L56.4447 39.2515C61.8036 24.5249 57.3596 8.02662 45.3404 -2.02219L35.0777 10.2529ZM41.4092 33.7801L26.3735 28.3097C25.6239 30.3698 23.657 31.7537 21.4418 31.7524L21.4325 47.7524L21.4233 63.7524C37.084 63.7615 51.0878 53.9751 56.445 39.2506L41.4092 33.7801ZM21.4325 47.7524V31.7524H21.4216V47.7524V63.7524H21.4325V47.7524ZM21.4216 47.7524V31.7524C21.3275 31.7524 21.2539 31.7524 21.1788 31.7523C21.1065 31.7522 21.0462 31.752 20.9928 31.7517C20.8839 31.7509 20.8243 31.7497 20.7946 31.7489C20.7653 31.7481 20.7886 31.7482 20.8507 31.7523C20.9122 31.7563 21.0368 31.7658 21.2102 31.7869L19.275 47.6695L17.3399 63.552C19.1819 63.7765 20.9603 63.7524 21.4216 63.7524V47.7524ZM19.275 47.6695L21.1998 31.7857C21.8026 31.8587 22.2647 31.9528 22.3705 31.9742C22.6556 32.0319 22.0669 31.9068 21.5531 31.8281C20.8565 31.7213 19.7869 31.6019 18.4797 31.6495C17.1487 31.698 15.8752 31.9076 14.6808 32.2413L18.9858 47.6512L23.2909 63.0612C22.1525 63.3792 20.9287 63.5815 19.6444 63.6283C18.3839 63.6742 17.358 63.5587 16.7052 63.4587C16.2352 63.3867 15.6907 63.2711 16.0233 63.3384C16.1766 63.3695 16.6897 63.4732 17.3502 63.5533L19.275 47.6695ZM18.9858 47.6512L14.6903 32.2386C12.5552 32.8337 10.5556 33.844 8.80706 35.2146L18.6777 47.8071L28.5483 60.3996C26.9828 61.6267 25.1926 62.5312 23.2814 63.0638L18.9858 47.6512ZM18.6777 47.8071L8.80706 35.2146C7.06175 36.5827 5.60252 38.2815 4.51328 40.2146L18.4527 48.0691L32.3921 55.9236C31.417 57.6541 30.1106 59.175 28.5483 60.3996L18.6777 47.8071ZM18.4527 48.0691L4.51673 40.2085C3.42309 42.1474 2.7256 44.2801 2.46016 46.4828L18.3452 48.3971L34.2303 50.3113C33.9927 52.2833 33.3682 54.193 32.3887 55.9297L18.4527 48.0691ZM18.3452 48.3971L2.46207 46.467C2.1936 48.6763 2.36544 50.9099 2.9598 53.0405L18.3714 48.7412L33.7829 44.4419C34.3149 46.3487 34.4689 48.3483 34.2284 50.3271L18.3452 48.3971ZM18.3714 48.7412L2.96454 53.0574C3.5608 55.1858 4.57095 57.1828 5.94393 58.9311L18.5275 49.0491L31.111 39.1671C32.3405 40.7326 33.2446 42.5203 33.7782 44.425L18.3714 48.7412ZM18.5275 49.0491L5.94393 58.9311C7.31387 60.6756 9.01657 62.1361 10.9572 63.2255L18.7897 49.2738L26.6222 35.322C28.3601 36.2977 29.8846 37.6054 31.111 39.1671L18.5275 49.0491ZM18.7897 49.2738L10.9463 63.2194C12.8797 64.3068 15.0117 65.0044 17.2214 65.2682L19.1181 49.381L21.0148 33.4938C22.9936 33.7301 24.9024 34.3547 26.6331 35.3281L18.7897 49.2738ZM21.4325 51.2896L21.4267 35.2896C21.0195 35.2897 20.6057 35.2619 20.1874 35.2049L18.0255 51.0582L15.8637 66.9114C17.7039 67.1624 19.5661 67.2902 21.4384 67.2896L21.4325 51.2896ZM18.0255 51.0582L19.9538 35.1748C15.5557 34.6408 11.1244 35.8569 7.61511 38.5601L17.3789 51.2356L27.1427 63.9111C24.0013 66.3309 20.0345 67.4195 16.0973 66.9415L18.0255 51.0582ZM17.3789 51.2356L7.61613 38.5593C4.10716 41.2618 1.79737 45.2377 1.19221 49.6324L17.0426 51.8151L32.8931 53.9977C32.3512 57.9329 30.2831 61.4925 27.1417 63.9118L17.3789 51.2356ZM17.0426 51.8151L1.19208 49.6334C0.588773 54.0166 1.72949 58.4693 4.38214 62.0274L17.2095 52.464L30.0369 42.9006C32.4122 46.0866 33.4332 50.0732 32.8932 53.9967L17.0426 51.8151ZM17.2095 52.464L4.37959 62.0239C8.36838 67.3771 13.8852 68.3355 15.3145 68.5576L17.771 52.7473L20.2275 36.937C20.6819 37.0076 22.2461 37.2596 24.1056 38.1092C26.2177 39.0743 28.3502 40.6369 30.0395 42.9041L17.2095 52.464ZM17.771 52.7473L15.5888 68.5978C31.246 70.7534 46.9341 64.1185 56.1575 51.0793L43.0952 41.8395L30.0328 32.5997C27.8074 35.7457 23.9479 37.4468 19.9532 36.8968L17.771 52.7473ZM43.0952 41.8395L56.1573 51.0797C65.3359 38.1046 66.5109 21.0975 59.2035 6.98401L44.995 14.3405L30.7865 21.6971C32.5934 25.1868 32.3034 29.39 30.0331 32.5993L43.0952 41.8395ZM44.995 14.3405L59.2035 6.98395C51.8969 -7.12792 37.3331 -15.9861 21.4464 -16L21.4325 3.48417e-05L21.4186 16C25.3685 16.0035 28.9789 18.2059 30.7866 21.6971L44.995 14.3405ZM0.355619 41.1673L-9.21033 28.3418C-12.7613 30.9903 -15.1297 34.9287 -15.8036 39.308L0.0102802 41.7416L15.8241 44.1751C15.2208 48.0959 13.1005 51.6217 9.92157 53.9927L0.355619 41.1673ZM0.0102802 41.7416L-15.8037 39.3091C-16.4776 43.6901 -15.4016 48.1591 -12.8099 51.7524L0.16703 42.393L13.144 33.0336C15.4642 36.2505 16.4276 40.2517 15.8243 44.174L0.0102802 41.7416ZM0.16703 42.393L-12.6481 51.9728C-3.11167 64.7299 12.6644 71.0043 28.3033 68.4315L25.706 52.6437L23.1087 36.8559C19.1737 37.5033 15.3161 35.9354 12.9822 32.8132L0.16703 42.393ZM25.706 52.6437L33.7801 66.457L40.4073 62.5834L32.3332 48.77L24.2591 34.9567L17.6319 38.8303L25.706 52.6437ZM30.318 45.8373L23.6566 31.29C21.6456 32.2108 19.2742 31.7734 17.7271 30.2042L6.33342 41.4373L-5.06029 52.6705C5.93692 63.8249 22.7403 66.905 36.9795 60.3847L30.318 45.8373ZM6.33342 41.4373L17.6869 30.1636L17.6793 30.1559L6.3258 41.4297L-5.02773 52.7034L-5.02012 52.7111L6.33342 41.4373ZM6.3258 41.4297L17.713 30.1899C17.6818 30.1583 17.6476 30.1198 17.6121 30.0738L4.94812 39.8525L-7.71588 49.6312C-6.89726 50.6914 -6.01151 51.7068 -5.06136 52.6694L6.3258 41.4297ZM4.94812 39.8525L17.6043 30.0637C16.2456 28.307 14.5555 26.8379 12.6328 25.738L4.68761 39.6259L-3.25764 53.5138C-4.97849 52.5293 -6.49152 51.2142 -7.70808 49.6413L4.94812 39.8525ZM4.68761 39.6259L12.6328 25.738C10.7096 24.6377 8.58691 23.9258 6.38531 23.6448L4.3601 39.5161L2.33489 55.3874C0.363937 55.136 -1.53618 54.4986 -3.25764 53.5138L4.68761 39.6259ZM4.3601 39.5161L6.38531 23.6448C4.19108 23.3648 1.96103 23.5184 -0.177707 24.0992L4.01548 39.54L8.20867 54.9807C6.29432 55.5006 4.29848 55.638 2.33489 55.3874L4.3601 39.5161ZM4.01548 39.54L-0.191347 24.1029C-2.31832 24.6826 -4.32081 25.6757 -6.07991 27.0356L3.70627 39.6939L13.4925 52.3521C11.9173 53.5699 10.1249 54.4585 8.22231 54.977L4.01548 39.54ZM31.411 47.255L44.0823 37.4858L42.9894 36.0681L30.318 45.8373L17.6467 55.6065L18.7396 57.0242L31.411 47.255ZM3.70627 39.6939L-2.73427 25.0474L-5.72022 26.3604L0.720324 41.0069L7.16087 55.6534L10.1468 54.3403L3.70627 39.6939ZM32.3332 48.77L25.3114 34.3931C24.3494 34.863 23.3459 35.1406 22.3378 35.2422L23.9427 51.1615L25.5476 67.0808C30.2608 66.6056 34.9387 65.3038 39.355 63.1469L32.3332 48.77ZM0.720324 41.0069L-2.25944 25.2868C-4.75558 25.7599 -7.13997 26.7958 -9.21735 28.347L0.355619 41.1673L9.92859 53.9875C8.06877 55.3762 5.93422 56.3035 3.70009 56.727L0.720324 41.0069ZM23.9427 51.1615L22.321 35.2439C22.0274 35.2738 21.7281 35.2894 21.4235 35.2896L21.4325 51.2896L21.4416 67.2896C22.8271 67.2888 24.2028 67.2178 25.5643 67.0791L23.9427 51.1615ZM20.3754 49.492L19.6343 65.4748C25.9401 65.7672 32.3622 64.5339 38.3105 61.6909L31.411 47.255L24.5115 32.819C23.4199 33.3407 22.2587 33.5621 21.1164 33.5091L20.3754 49.492ZM19.1181 49.381L17.1858 65.2639C17.9543 65.3574 18.7246 65.4253 19.4953 65.4677L20.3754 49.492L21.2554 33.5162C21.1857 33.5123 21.1173 33.5063 21.0504 33.4981L19.1181 49.381Z" fill="white" mask="url(#path-2-inside-1_658_1630)"/>
</svg>


