<svg width="53" height="53" viewBox="0 0 53 53" fill="none" xmlns="http://www.w3.org/2000/svg">
        <path d="M24.8438 13.6775V10.2496C22.3694 10.2608 19.9175 9.76395 17.6308 8.78784C16.8882 9.53648 15.9339 10.0215 14.9062 10.1727V13.6775C14.9062 15.0378 15.4297 16.3424 16.3616 17.3043C17.2934 18.2662 18.5572 18.8065 19.875 18.8065C21.1928 18.8065 22.4567 18.2662 23.3885 17.3043C24.3203 16.3424 24.8438 15.0378 24.8438 13.6775Z" fill="white"/>
        <path d="M13.2501 11.1984V9.40322C13.2507 9.17671 13.3382 8.95967 13.4934 8.79951C13.6485 8.63934 13.8588 8.54906 14.0782 8.54838C14.0948 8.54838 15.9663 8.52274 16.6785 7.26613C16.7345 7.16606 16.8096 7.07883 16.8993 7.00975C16.989 6.94066 17.0914 6.89119 17.2003 6.86435C17.31 6.83591 17.4243 6.83187 17.5357 6.85251C17.6471 6.87314 17.7529 6.91797 17.8462 6.98403C17.871 6.99258 20.2561 8.54838 25.672 8.54838C25.8915 8.54906 26.1017 8.63934 26.2569 8.79951C26.412 8.95967 26.4995 9.17671 26.5002 9.40322V11.1984C26.7725 11.1395 27.0501 11.1108 27.3283 11.1129C28.2141 11.1032 29.0814 11.3748 29.8127 11.8908V6.83871C29.8105 5.02566 29.1118 3.28753 27.8698 2.00551C26.6279 0.723493 24.944 0.00226207 23.1876 0H16.5626C15.8169 0.000531636 15.0932 0.260754 14.5086 0.738562C13.924 1.21637 13.5127 1.88381 13.3412 2.6329C12.3866 2.81181 11.5232 3.33075 10.9012 4.0993C10.2793 4.86784 9.93824 5.83728 9.93756 6.83871V11.8908C10.6689 11.3748 11.5362 11.1032 12.422 11.1129C12.7002 11.1104 12.9778 11.1391 13.2501 11.1984ZM22.3595 20.0203C20.763 20.67 18.9872 20.67 17.3907 20.0203V21.8753L19.8751 24.4398L22.3595 21.8753V20.0203ZM29.8127 14.9597C29.7518 14.3387 29.4575 13.7672 28.9931 13.3677C28.5286 12.9681 27.9309 12.7724 27.3283 12.8226C27.0474 12.8194 26.7678 12.8627 26.5002 12.9508V13.6774C26.5009 14.7081 26.2744 15.7254 25.8377 16.6522C26.2826 16.9458 26.8003 17.1002 27.3283 17.0968C27.9309 17.1469 28.5286 16.9512 28.9931 16.5517C29.4575 16.1521 29.7518 15.5806 29.8127 14.9597ZM13.2501 13.6774V12.9593C12.9839 12.8642 12.7036 12.8179 12.422 12.8226C11.8193 12.7724 11.2216 12.9681 10.7572 13.3677C10.2927 13.7672 9.99845 14.3387 9.93756 14.9597C9.99845 15.5806 10.2927 16.1521 10.7572 16.5517C11.2216 16.9512 11.8193 17.1469 12.422 17.0968C12.9507 17.1055 13.4698 16.9507 13.9126 16.6522C13.4759 15.7254 13.2493 14.7081 13.2501 13.6774ZM50.0108 18.0114C50.727 18.0098 51.4335 18.1826 52.0728 18.5158L51.7498 6.3429C51.7346 5.78882 51.5107 5.2627 51.1257 4.87633C50.7406 4.48997 50.2248 4.27383 49.6878 4.27383C49.1508 4.27383 48.635 4.48997 48.2499 4.87633C47.8649 5.2627 47.641 5.78882 47.6258 6.3429L47.2862 18.9005C47.8876 18.4572 48.5835 18.1699 49.3151 18.0627C49.5455 18.0283 49.778 18.0112 50.0108 18.0114ZM4.96878 31.1674V37.6129H6.62504C7.06431 37.6129 7.48559 37.793 7.79619 38.1136C8.1068 38.4343 8.2813 38.8691 8.2813 39.3226V43.2035C8.78475 43.5029 9.2029 43.9339 9.49365 44.4531C9.7844 44.9724 9.93748 45.5615 9.93748 46.1613C9.93748 46.761 9.7844 47.3502 9.49365 47.8694C9.2029 48.3886 8.78475 48.8196 8.2813 49.119V53H11.5938V25.9443L7.92521 27.0813C7.06962 27.339 6.31846 27.877 5.78514 28.6141C5.25182 29.3512 4.96528 30.2474 4.96878 31.1674ZM15.867 27.1326L18.5336 25.4742L16.4301 23.3029L13.7552 24.9613L15.867 27.1326ZM25.995 24.9613L23.3201 23.3029L21.2167 25.4742L23.8833 27.1326L25.995 24.9613ZM18.7157 29.0645H21.0345L21.697 27.7737L19.8751 26.6453L18.0532 27.7737L18.7157 29.0645ZM22.3181 45.768L20.7861 30.7742H18.9642L17.4321 45.768L19.8751 47.6572L22.3181 45.768Z" fill="white"/>
        <path d="M24.0158 29.0644C23.8673 29.0632 23.7217 29.0219 23.5934 28.9448L23.1214 28.6541L22.3844 30.0902L24.0075 46.0757C24.0235 46.2219 24.0022 46.3699 23.9455 46.5049C23.8888 46.6399 23.7988 46.7572 23.6845 46.8451L20.372 49.4096C20.2287 49.5206 20.0543 49.5806 19.8751 49.5806C19.6959 49.5806 19.5216 49.5206 19.3782 49.4096L16.0657 46.8451C15.9514 46.7572 15.8614 46.6399 15.8047 46.5049C15.7481 46.3699 15.7267 46.2219 15.7428 46.0757L17.3659 30.0902L16.6289 28.6541L16.1568 28.9448C15.9983 29.0414 15.8133 29.0812 15.6305 29.058C15.4478 29.0348 15.2776 28.9499 15.1465 28.8165L13.2501 26.8589V52.9999H26.5002V26.8589L24.6037 28.8165C24.4463 28.9747 24.2355 29.0635 24.0158 29.0644ZM38.243 34.1165C38.1798 34.2076 38.0996 34.2846 38.007 34.3431C37.9145 34.4016 37.8115 34.4403 37.7042 34.457C37.5969 34.4738 37.4874 34.4681 37.3823 34.4405C37.2771 34.4128 37.1784 34.3637 37.0919 34.296C36.9144 34.162 36.7955 33.9608 36.7614 33.7365C36.7272 33.5122 36.7806 33.2831 36.9098 33.0993L37.7876 31.8683L33.5227 28.0985L28.1564 26.0298V52.9999H32.2971C32.5167 52.9999 32.7273 52.9098 32.8826 52.7495C33.038 52.5892 33.1252 52.3718 33.1252 52.1451V37.6128C33.1252 37.3861 33.2124 37.1687 33.3678 37.0084C33.5231 36.848 33.7337 36.758 33.9533 36.758C34.173 36.758 34.3836 36.848 34.5389 37.0084C34.6942 37.1687 34.7815 37.3861 34.7815 37.6128V40.6133L41.0007 43.3402C41.1031 43.3842 41.2128 43.4074 41.3237 43.4086C41.4674 43.4084 41.6085 43.3697 41.7334 43.2963C41.8582 43.2229 41.9625 43.1172 42.0359 42.9897L50.5739 27.936L45.4561 23.9781C38.4335 33.8686 38.243 34.1165 38.243 34.1165ZM51.7995 20.3365C51.4821 20.0897 51.1199 19.9111 50.7344 19.8113C50.349 19.7114 49.948 19.6924 49.5553 19.7552C49.1619 19.8115 48.7836 19.9496 48.4434 20.1612C48.1032 20.3728 47.8081 20.6535 47.5761 20.9862L46.4332 22.5933L51.4186 26.4572L52.5863 24.3885C52.9601 23.7312 53.0865 22.9549 52.9414 22.2076C52.7963 21.4604 52.3898 20.7943 51.7995 20.3365ZM0 51.2902C0 51.7437 0.174498 52.1785 0.485107 52.4992C0.795716 52.8198 1.21699 52.9999 1.65626 52.9999H6.62504V49.5806H1.65626C1.21699 49.5806 0.795716 49.7607 0.485107 50.0813C0.174498 50.4019 0 50.8368 0 51.2902ZM1.65626 42.7418H6.62504V39.3225H1.65626C1.21699 39.3225 0.795716 39.5026 0.485107 39.8232C0.174498 40.1439 0 40.5787 0 41.0322C0 41.4856 0.174498 41.9205 0.485107 42.2411C0.795716 42.5617 1.21699 42.7418 1.65626 42.7418ZM6.62504 44.4515H1.65626V47.8709H6.62504C7.06431 47.8709 7.48558 47.6907 7.79619 47.3701C8.1068 47.0495 8.2813 46.6146 8.2813 46.1612C8.2813 45.7078 8.1068 45.2729 7.79619 44.9523C7.48558 44.6316 7.06431 44.4515 6.62504 44.4515Z" fill="white"/>
        </svg>