<svg width="53" height="53" viewBox="0 0 53 53" fill="none" xmlns="http://www.w3.org/2000/svg">
        <path d="M26.4402 0.00127402C26.3139 0.00840529 26.1905 0.0360368 26.0767 0.0826516L7.84654 7.37534V14.8558L12.8019 16.9403C12.6268 16.0975 12.6105 15.2366 12.7536 14.3895V9.65391C12.7536 8.74624 13.2136 8.05766 13.7217 7.57878C14.1705 7.15624 14.6861 6.86516 15.1423 6.65859C16.0659 6.23605 17.0747 5.97627 18.1986 5.7603C20.4611 5.32212 23.3282 5.0905 26.4995 5.0905C29.667 5.0905 32.5305 5.32525 34.7967 5.7603C35.9206 5.9794 36.9294 6.23605 37.853 6.65859C38.3092 6.86516 38.8248 7.15624 39.2736 7.57878C39.8927 8.14382 40.2382 8.88432 40.2416 9.65391V14.3926C40.3232 14.8433 40.4308 15.776 40.1934 16.9403L52.4593 11.776C52.6237 11.7065 52.7616 11.5994 52.8572 11.4669C52.9528 11.3344 53.0022 11.1819 52.9999 11.0268C52.9976 10.8716 52.9436 10.7202 52.844 10.5898C52.7445 10.4594 52.6035 10.3552 52.4371 10.2893L26.9186 0.0826516C26.7687 0.0214895 26.6027 -0.00651262 26.4364 0.00127402H26.4402ZM7.84654 14.8558L5.88072 14.0264V17.3942H7.84654V14.8558ZM5.88072 14.0264V8.16094L0.558196 10.2893C0.392946 10.3561 0.253119 10.4606 0.154499 10.5909C0.0558789 10.7212 0.00239284 10.8722 7.84306e-05 11.0268C-0.00223598 11.1814 0.0467133 11.3335 0.141401 11.4659C0.236089 11.5983 0.372744 11.7057 0.535941 11.776L5.88072 14.0264ZM18.6362 7.37534C17.748 7.52448 16.8874 7.77289 16.077 8.11399C15.7428 8.2581 15.4414 8.45095 15.1868 8.68364C14.8956 8.94821 14.7283 9.293 14.7158 9.65391V14.5053C14.6193 14.9622 14.1334 17.7416 16.7446 19.9419L16.9523 20.1172V20.6086C15.0829 20.7776 13.655 22.1829 13.655 23.8324C13.655 25.5851 15.2684 27.0875 17.3158 27.0875C17.4011 27.0875 17.4827 27.0718 17.5643 27.0656C18.2673 28.6981 19.5487 30.1086 21.2345 31.1052C22.9203 32.1019 24.9288 32.6366 26.9872 32.6366C29.0456 32.6366 31.0542 32.1019 32.74 31.1052C34.4258 30.1086 35.7072 28.6981 36.4102 27.0656C36.4955 27.0718 36.5771 27.0875 36.6624 27.0875C38.7098 27.0875 40.3232 25.5851 40.3232 23.8324C40.3232 22.1829 38.8952 20.7776 37.0221 20.6086V20.0202C37.0217 19.8111 36.9276 19.6099 36.7588 19.4568C38.784 17.3597 38.3723 14.9403 38.2795 14.5053V9.65391C38.2667 9.29306 38.0993 8.94837 37.8085 8.68364C37.5538 8.451 37.2525 8.25815 36.9183 8.11399C36.1079 7.77289 35.2472 7.52448 34.359 7.37534C32.3005 6.97784 29.5484 6.74622 26.4958 6.74622C23.4469 6.74622 20.6948 6.97784 18.6325 7.37221L18.6362 7.37534ZM26.4995 13.2502C29.4297 13.2502 32.0705 13.4818 33.9177 13.8355C34.8412 14.0139 35.5719 14.2361 35.9836 14.4239C36.1765 14.5115 36.2803 14.5898 36.3211 14.6242L36.3434 14.7212C36.3731 14.8433 36.8997 17.0624 34.8598 18.7745L34.3553 19.197H30.2753C27.8904 19.197 25.8801 17.7259 25.5166 15.7353C25.4713 15.5357 25.3407 15.3572 25.1497 15.2334C24.9587 15.1097 24.7205 15.0495 24.4803 15.0641C24.2401 15.0788 24.0147 15.1674 23.8467 15.313C23.6788 15.4587 23.5801 15.6513 23.5693 15.8543C23.5634 16.7442 23.1396 17.5958 22.3908 18.2224C21.642 18.849 20.6292 19.1995 19.5746 19.197H18.6474L18.1429 18.7745C16.051 17.0155 16.663 14.6805 16.663 14.6805L16.6779 14.6179C16.7807 14.5406 16.8955 14.4753 17.0191 14.4239C17.4308 14.2361 18.1541 14.0139 19.0739 13.8355C20.921 13.4818 23.573 13.2502 26.5032 13.2502H26.4995ZM4.80138 17.3942C4.55906 17.4151 4.33459 17.5112 4.17149 17.6639C4.00839 17.8166 3.91827 18.0149 3.91862 18.2205V25.6665C3.91862 26.1266 4.36371 26.4991 4.90524 26.4991H8.83686C9.37468 26.4991 9.81235 26.1235 9.81235 25.6665V18.2173C9.81137 17.9984 9.70789 17.7888 9.52447 17.634C9.34104 17.4792 9.09255 17.3919 8.83315 17.391H4.80509L4.80138 17.3942ZM16.9523 22.2737V24.1798C16.9523 24.5992 17.0005 25.0061 17.071 25.4099C16.2699 25.3003 15.6171 24.6712 15.6171 23.8324C15.6171 23.0343 16.2105 22.4239 16.9523 22.2737ZM37.0259 22.2737C37.7677 22.4239 38.3574 23.0343 38.3574 23.8324C38.3574 24.6712 37.7046 25.3034 36.9072 25.4099C36.9739 25.0061 37.0259 24.5961 37.0259 24.1798V22.2737ZM21.8261 33.1313L25.7799 36.4616L26.4958 37.0656L27.2116 36.4616L31.1544 33.1345C29.6849 33.6819 28.0961 33.9644 26.4898 33.9638C24.8835 33.9633 23.295 33.6797 21.8261 33.1313ZM19.6117 33.9576C19.3557 33.9599 19.1109 34.0464 18.9293 34.1986L15.9843 36.6807C15.8019 36.836 15.6996 37.0458 15.6996 37.2644C15.6996 37.483 15.8019 37.6928 15.9843 37.8481L22.8609 43.6447C23.2429 43.9671 23.8623 43.9671 24.2444 43.6447L26.4958 41.748L28.7509 43.6447C29.1329 43.9671 29.7524 43.9671 30.1344 43.6447L37.0036 37.8481C37.1859 37.6928 37.2882 37.483 37.2882 37.2644C37.2882 37.0458 37.1859 36.836 37.0036 36.6807L34.0623 34.1986C33.9709 34.121 33.8623 34.0595 33.7426 34.0174C33.623 33.9754 33.4946 33.9538 33.365 33.9538C33.2354 33.9538 33.107 33.9754 32.9874 34.0174C32.8677 34.0595 32.759 34.121 32.6677 34.1986L26.4958 39.4099L20.3165 34.1986C20.2238 34.121 20.1138 34.0597 19.9928 34.0183C19.8718 33.9769 19.7423 33.9563 19.6117 33.9576ZM39.2142 36.8904C39.2845 37.2743 39.2473 37.6667 39.1056 38.0363C38.9639 38.4059 38.7217 38.7423 38.3982 39.0187L31.5253 44.8153V44.8184C30.9739 45.2825 30.227 45.5431 29.4482 45.5431C28.6695 45.5431 27.9225 45.2825 27.3711 44.8184H27.3637L26.4958 44.086L25.6279 44.8184C25.0765 45.2825 24.3295 45.5431 23.5508 45.5431C22.772 45.5431 22.0251 45.2825 21.4737 44.8184L14.5934 39.0218L14.5896 39.0187C14.265 38.743 14.0219 38.4066 13.8801 38.0369C13.7383 37.6671 13.7019 37.2743 13.7736 36.8904C7.51643 38.3552 2.93572 43.3286 2.93572 49.241V52.1706C2.93572 52.6275 3.37339 53 3.91491 53H11.7707V48.8466C11.7707 47.7574 13.7366 47.7574 13.7366 48.8466V53H39.255V48.8466C39.255 47.7699 41.2208 47.7699 41.2208 48.8466V53H49.0729C49.6145 53 50.0521 52.6244 50.0521 52.1706V49.241C50.0521 43.3255 45.4751 38.352 39.2142 36.8904Z" fill="white"/>
        </svg>