<svg width="53" height="53" viewBox="0 0 53 53" fill="none" xmlns="http://www.w3.org/2000/svg">
        <path d="M52.9807 44.2406L48.044 2.3368C47.8808 0.885297 46.5182 -0.179822 45.0692 0.0253373L21.3579 3.29592C21.2913 1.47 19.7945 0.00140207 17.9514 0.00140207H16.2418C14.356 0.00140207 12.8225 1.53497 12.8225 3.42072V5.13038H9.40315C8.46027 5.13038 7.69349 5.89717 7.69349 6.84004V38.9697L1.31132 45.351C0.894395 45.7663 0.563856 46.2601 0.338788 46.8038C0.11372 47.3476 -0.00142079 47.9305 1.32319e-05 48.519C0.00137027 49.7071 0.473885 50.8462 1.31392 51.6864C2.15396 52.5266 3.29293 52.9993 4.48103 53.0009C5.06986 53.0027 5.65318 52.8876 6.19716 52.6622C6.74113 52.4368 7.23493 52.1056 7.64989 51.6879L7.72597 51.6118C7.80079 52.002 8.00908 52.3541 8.3151 52.6075C8.62112 52.861 9.0058 53 9.40315 53.0009H41.8867C42.8296 53.0009 43.5964 52.2341 43.5964 51.2912V48.5857L50.7256 47.2898C51.4191 47.1643 52.0386 46.7789 52.4577 46.2122C52.8767 45.6456 53.0638 44.9404 52.9807 44.2406ZM14.5321 3.42072C14.5321 2.47785 15.2989 1.71106 16.2418 1.71106H17.9514C18.8943 1.71106 19.6611 2.47785 19.6611 3.42072V5.13038H17.9514V3.42072H16.2418V5.13038H14.5321V3.42072ZM14.5321 6.84004H16.2418V9.40454C16.2319 9.62464 16.1376 9.83246 15.9783 9.98473C15.8191 10.137 15.6073 10.222 15.387 10.222C15.1666 10.222 14.9548 10.137 14.7956 9.98473C14.6363 9.83246 14.542 9.62464 14.5321 9.40454V6.84004ZM19.5013 34.5357L18.4652 33.4996L20.0193 32.9816L19.5013 34.5357ZM16.6521 34.104L18.8969 36.3488L18.4327 37.7413L15.2596 34.5682L16.6521 34.104ZM13.6773 35.4033L17.5975 39.3236L8.54832 48.3728L4.62806 44.4526L13.6773 35.4033ZM4.48103 51.2912C3.74615 51.2903 3.04164 50.9979 2.52208 50.4782C2.00252 49.9585 1.71035 49.2539 1.70967 48.519C1.70967 47.7787 1.99775 47.0829 2.52091 46.5589L3.41933 45.6613L7.33959 49.5816L6.44116 50.48C6.18434 50.7381 5.87885 50.9428 5.54239 51.082C5.20592 51.2213 4.84517 51.2924 4.48103 51.2912ZM41.8867 51.2912H9.40315V49.9355L19.5534 39.7852L21.9871 32.485H40.177V30.7753H21.2323L13.2157 33.4475L9.40315 37.26V6.84004H12.8225V9.40454C12.8225 10.8184 13.9731 11.969 15.387 11.969C16.8008 11.969 17.9514 10.8184 17.9514 9.40454V6.84004H19.6611V10.2594H21.3708V6.84004H41.8867V51.2912ZM50.4196 45.6075L43.5964 46.8478V6.84004C43.5964 5.89717 42.8296 5.13038 41.8867 5.13038H21.3708V5.02097L45.3026 1.71961C45.4247 1.70385 45.5487 1.71248 45.6674 1.745C45.7861 1.77752 45.8972 1.83329 45.9942 1.90907C46.0912 1.98485 46.1722 2.07913 46.2325 2.18645C46.2928 2.29377 46.3312 2.41199 46.3455 2.53426L51.283 44.4457C51.3131 44.7127 51.2407 44.9812 51.0805 45.1969C50.9202 45.4126 50.684 45.5593 50.4196 45.6075Z" fill="white"/>
        <path d="M40.177 25.6464V8.5498H23.0804V25.6464H40.177ZM31.6287 17.0981C30.6858 17.0981 29.9191 16.3313 29.9191 15.3884C29.9191 14.4456 30.6858 13.6788 31.6287 13.6788C32.5716 13.6788 33.3384 14.4456 33.3384 15.3884C33.3384 16.3313 32.5716 17.0981 31.6287 17.0981ZM29.3378 19.3677C29.8852 19.0023 30.5286 18.8074 31.1868 18.8078H32.0698C32.728 18.8073 33.3715 19.0022 33.9188 19.3677C34.2975 19.6211 34.6204 19.9491 34.8678 20.3318C35.1152 20.7144 35.2818 21.1435 35.3575 21.5928L35.749 23.9367H27.5084L27.8991 21.5928C27.9749 21.1435 28.1416 20.7145 28.389 20.3319C28.6363 19.9493 28.9592 19.6212 29.3378 19.3677ZM24.7901 10.2595H38.4674V23.9367H37.4817L37.0441 21.3116C36.9088 20.5097 36.5822 19.7522 36.0921 19.1032C35.6019 18.4543 34.9626 17.9331 34.2283 17.5837C34.7541 16.9728 35.0448 16.1944 35.048 15.3884C35.048 13.5027 33.5145 11.9691 31.6287 11.9691C29.743 11.9691 28.2094 13.5027 28.2094 15.3884C28.2094 16.2279 28.5248 16.9878 29.0292 17.5837C28.2948 17.9331 27.6555 18.4543 27.1653 19.1032C26.6752 19.7522 26.3486 20.5097 26.2134 21.3116L25.7757 23.9367H24.7901V10.2595ZM11.1128 13.6788H21.3708V15.3884H11.1128V13.6788ZM11.1128 17.0981H21.3708V18.8078H11.1128V17.0981ZM11.1128 20.5174H21.3708V22.2271H11.1128V20.5174ZM11.1128 23.9367H21.3708V25.6464H11.1128V23.9367ZM11.1128 27.3561H40.177V29.0657H11.1128V27.3561ZM28.2094 49.5817H40.177V42.743H28.2094V49.5817ZM29.9191 44.4527H38.4674V47.872H29.9191V44.4527ZM19.6611 47.872H26.4997V49.5817H19.6611V47.872ZM19.6611 44.4527H26.4997V46.1623H19.6611V44.4527Z" fill="white"/>
        </svg>