<svg width="53" height="53" viewBox="0 0 53 53" fill="none" xmlns="http://www.w3.org/2000/svg">
                        <path
                            d="M9.93717 47.0161C9.93565 46.4874 9.77561 45.9722 9.47904 45.5412C9.18246 45.1102 8.76389 44.7845 8.28079 44.6089V41.8871C8.28079 41.6604 8.19354 41.4429 8.03822 41.2826C7.88291 41.1223 7.67225 41.0322 7.4526 41.0322H2.48347C1.89809 41.0311 1.3312 41.2438 0.883209 41.6328C0.435222 42.0217 0.135048 42.5617 0.0358524 43.1572C-0.0633431 43.7527 0.0448419 44.3652 0.341246 44.8862C0.63765 45.4073 1.10314 45.8032 1.65528 46.004V48.0282C1.10314 48.229 0.63765 48.6249 0.341246 49.146C0.0448419 49.667 -0.0633431 50.2795 0.0358524 50.875C0.135048 51.4705 0.435222 52.0105 0.883209 52.3994C1.3312 52.7884 1.89809 53.0011 2.48347 53H7.4526C7.67225 53 7.88291 52.9099 8.03822 52.7496C8.19354 52.5893 8.28079 52.3719 8.28079 52.1451V49.4233C8.76389 49.2477 9.18246 48.922 9.47904 48.491C9.77561 48.06 9.93565 47.5448 9.93717 47.0161ZM2.48347 42.7419H6.62442V44.4516H2.48347C2.26382 44.4516 2.05317 44.3615 1.89785 44.2012C1.74254 44.0409 1.65528 43.8235 1.65528 43.5967C1.65528 43.37 1.74254 43.1526 1.89785 42.9923C2.05317 42.832 2.26382 42.7419 2.48347 42.7419ZM6.62442 51.2903H2.48347C2.26382 51.2903 2.05317 51.2002 1.89785 51.0399C1.74254 50.8796 1.65528 50.6622 1.65528 50.4355C1.65528 50.2087 1.74254 49.9913 1.89785 49.831C2.05317 49.6707 2.26382 49.5806 2.48347 49.5806H6.62442V51.2903ZM7.4526 47.8709H3.31166V46.1613H7.4526C7.67225 46.1613 7.88291 46.2513 8.03822 46.4116C8.19354 46.572 8.28079 46.7894 8.28079 47.0161C8.28079 47.2428 8.19354 47.4603 8.03822 47.6206C7.88291 47.7809 7.67225 47.8709 7.4526 47.8709Z"
                            fill="white" />
                        <path
                            d="M52.1328 20.6486L51.7527 6.34461C51.7374 5.79053 51.5135 5.26441 51.1284 4.87805C50.7433 4.49169 50.2275 4.27554 49.6905 4.27554C49.1534 4.27554 48.6376 4.49169 48.2525 4.87805C47.8674 5.26441 47.6435 5.79053 47.6283 6.34461L47.2208 21.4872L40.0321 31.6051L34.4932 26.706C34.4203 26.6406 34.3367 26.5891 34.2464 26.5539L27.6896 24.0167L24.0166 21.742V19.0073C24.6852 18.4531 25.2439 17.7711 25.6622 16.9985C25.9374 17.0638 26.2188 17.0968 26.5012 17.0968C27.3237 17.1485 28.1329 16.8634 28.753 16.3033C29.3732 15.7431 29.7544 14.9532 29.8139 14.1048V6.83871C29.8117 5.02566 29.113 3.28753 27.8709 2.00551C26.6289 0.723493 24.9449 0.00226207 23.1884 0H16.5629C15.8169 0.000977448 15.093 0.261299 14.5079 0.738975C13.9228 1.21665 13.5107 1.88383 13.3379 2.6329C12.3842 2.81315 11.5219 3.33257 10.9006 4.10091C10.2794 4.86925 9.93858 5.83795 9.9374 6.83871V14.1048C9.99691 14.9532 10.3781 15.7431 10.9983 16.3033C11.6185 16.8634 12.4276 17.1485 13.2502 17.0968C13.5325 17.0967 13.8139 17.0638 14.0891 16.9985C14.5074 17.7711 15.0662 18.4531 15.7347 19.0073V21.742L12.0617 24.0158L8.73072 25.3066C7.62776 25.7375 6.67751 26.5038 6.00567 27.5042C5.33384 28.5046 4.97208 29.692 4.96826 30.9093V38.4677C4.96826 38.6945 5.05552 38.9119 5.21083 39.0722C5.36615 39.2325 5.5768 39.3226 5.79645 39.3226C6.0161 39.3226 6.22675 39.2325 6.38207 39.0722C6.53738 38.9119 6.62464 38.6945 6.62464 38.4677V30.9093C6.62734 30.0398 6.88573 29.1917 7.36562 28.4772C7.84551 27.7627 8.52428 27.2154 9.31211 26.9078L11.5938 26.0239V51.2903H10.7656C10.5459 51.2903 10.3353 51.3804 10.18 51.5407C10.0247 51.701 9.9374 51.9184 9.9374 52.1452C9.9374 52.3719 10.0247 52.5893 10.18 52.7496C10.3353 52.9099 10.5459 53 10.7656 53H33.9549C34.1745 53 34.3852 52.9099 34.5405 52.7496C34.6958 52.5893 34.7831 52.3719 34.7831 52.1452V40.6142L41.0011 43.3412C41.1864 43.4224 41.3941 43.4313 41.5852 43.366C41.7763 43.3007 41.9379 43.1657 42.0397 42.9864L52.5908 24.3868C52.9238 23.7986 53.0594 23.1134 52.9766 22.4375C52.8937 21.7616 52.5972 21.1328 52.1328 20.6486ZM49.6905 5.98387C49.7964 5.98339 49.8982 6.02585 49.9741 6.10211C50.05 6.17837 50.0939 6.28233 50.0963 6.39163L50.4516 19.7681C49.9365 19.6722 49.4057 19.7286 48.9202 19.9306L49.2846 6.39163C49.287 6.28233 49.3309 6.17837 49.4068 6.10211C49.4827 6.02585 49.5845 5.98339 49.6905 5.98387ZM18.9647 30.7742H20.7867L22.3155 45.7681L19.8757 47.6573L17.4358 45.7681L18.9647 30.7742ZM21.0335 29.0645H18.7179L18.0553 27.7694L19.8757 26.6419L21.696 27.7703L21.0335 29.0645ZM21.2107 25.475L23.3168 23.302L25.9943 24.9604L23.8882 27.1334L21.2107 25.475ZM14.9065 13.6774V10.1743C15.9341 10.024 16.8879 9.53779 17.628 8.78689C19.9154 9.76461 22.369 10.2607 24.8448 10.2461V13.6774C24.8448 15.0377 24.3213 16.3423 23.3894 17.3042C22.4575 18.2661 21.1936 18.8064 19.8757 18.8064C18.5578 18.8064 17.2938 18.2661 16.362 17.3042C15.4301 16.3423 14.9065 15.0377 14.9065 13.6774ZM26.5012 15.3871C26.4301 15.3829 26.3594 15.3749 26.2892 15.3632C26.4278 14.8126 26.499 14.2463 26.5012 13.6774V12.8226C27.3989 12.8226 28.1576 13.4099 28.1576 14.1048C28.1576 14.7998 27.3989 15.3871 26.5012 15.3871ZM14.0783 4.27419C14.298 4.27419 14.5086 4.18413 14.664 4.02382C14.8193 3.8635 14.9065 3.64607 14.9065 3.41935C14.907 2.96606 15.0816 2.53146 15.3922 2.21093C15.7027 1.8904 16.1237 1.71013 16.5629 1.70968H23.1884C24.5058 1.71126 25.7689 2.25215 26.7004 3.21369C27.632 4.17522 28.156 5.47889 28.1576 6.83871V11.5292C27.6452 11.2568 27.0775 11.1141 26.5012 11.1129V9.40322C26.5012 9.17651 26.4139 8.95908 26.2586 8.79876C26.1033 8.63845 25.8926 8.54839 25.673 8.54839C20.2583 8.54839 17.869 6.99514 17.8507 6.98232C17.7568 6.91772 17.651 6.87363 17.54 6.85274C17.4289 6.83186 17.3149 6.83464 17.2049 6.8609C17.0949 6.88715 16.9913 6.93634 16.9004 7.00544C16.8095 7.07454 16.7333 7.16209 16.6764 7.26271C15.9658 8.51932 14.0941 8.54839 14.0783 8.54839C13.8587 8.54839 13.648 8.63845 13.4927 8.79876C13.3374 8.95908 13.2502 9.17651 13.2502 9.40322V11.1129C12.6739 11.1141 12.1061 11.2568 11.5938 11.5292V6.83871C11.5944 6.15877 11.8564 5.50686 12.3222 5.02607C12.788 4.54528 13.4196 4.27487 14.0783 4.27419ZM13.2502 15.3871C12.3524 15.3871 11.5938 14.7998 11.5938 14.1048C11.5938 13.4099 12.3524 12.8226 13.2502 12.8226V13.6774C13.2523 14.2463 13.3235 14.8126 13.4622 15.3632C13.3919 15.3749 13.3212 15.3829 13.2502 15.3871ZM19.8757 20.5161C20.7276 20.5158 21.5714 20.3448 22.3602 20.0126V21.8719L19.8757 24.4364L17.3911 21.8719V20.0118C18.1799 20.3442 19.0237 20.5155 19.8757 20.5161ZM16.4345 23.3029L18.5406 25.475L15.8631 27.1334L13.757 24.9604L16.4345 23.3029ZM13.2502 26.853L15.1492 28.8132C15.2799 28.948 15.4504 29.0339 15.6338 29.0571C15.8172 29.0804 16.0029 29.0396 16.1612 28.9414L16.6333 28.6491L17.3696 30.0878L15.7397 46.0715C15.7245 46.2185 15.7466 46.367 15.8038 46.5025C15.861 46.638 15.9514 46.7557 16.066 46.8443L19.3787 49.4088C19.522 49.5201 19.6964 49.5802 19.8757 49.5802C20.0549 49.5802 20.2293 49.5201 20.3726 49.4088L23.6853 46.8443C23.8 46.7557 23.8903 46.638 23.9475 46.5025C24.0047 46.367 24.0268 46.2185 24.0116 46.0715L22.3818 30.0878L23.1188 28.6491L23.5909 28.9414C23.7492 29.0394 23.9347 29.08 24.1179 29.0568C24.3011 29.0336 24.4715 28.9478 24.6021 28.8132L26.5012 26.8539V51.2903H13.2502V26.853ZM40.9779 41.4725L34.7831 38.7584V35.0484C34.7831 34.8217 34.6958 34.6042 34.5405 34.4439C34.3852 34.2836 34.1745 34.1935 33.9549 34.1935C33.7352 34.1935 33.5246 34.2836 33.3693 34.4439C33.2139 34.6042 33.1267 34.8217 33.1267 35.0484V51.2903H28.1576V26.0239L33.5267 28.1028L39.0491 32.9882L38.2499 34.1123C38.1199 34.2953 38.0658 34.524 38.0992 34.7482C38.1327 34.9724 38.2511 35.1737 38.4283 35.3078C38.6056 35.4419 38.8272 35.4979 39.0444 35.4633C39.2616 35.4288 39.4566 35.3066 39.5866 35.1236L46.7794 24.9998L49.2424 26.906L40.9779 41.4725ZM51.1613 23.5226L50.0847 25.4203L47.7591 23.62L48.9128 21.9959C49.1171 21.7083 49.4207 21.5128 49.7607 21.4496C50.1007 21.3864 50.4512 21.4605 50.7399 21.6565C51.0285 21.8525 51.2332 22.1554 51.3116 22.5027C51.39 22.85 51.3362 23.2151 51.1613 23.5226Z"
                            fill="white" />
                    </svg>