<svg width="34" height="33" viewBox="0 0 34 33" fill="none" xmlns="http://www.w3.org/2000/svg">
<path d="M32.9541 8.32992C33.0554 8.29093 33.1425 8.22217 33.2039 8.1327C33.2653 8.04322 33.2982 7.93724 33.2982 7.8287V6.09035C33.2982 5.98182 33.2653 5.87583 33.2039 5.78636C33.1425 5.69688 33.0554 5.62812 32.9541 5.58913L32.1463 5.27817C32.0221 4.8484 31.8502 4.43385 31.634 4.04224L31.9855 3.25074C32.0295 3.15155 32.0425 3.04134 32.0227 2.93463C32.0029 2.82793 31.9512 2.72973 31.8744 2.65298L30.6452 1.4237C30.5684 1.347 30.4702 1.29534 30.3635 1.27552C30.2568 1.2557 30.1466 1.26865 30.0474 1.31266L29.2555 1.66437C28.864 1.44814 28.4497 1.27633 28.02 1.15214L27.709 0.344126C27.67 0.242839 27.6013 0.155742 27.5118 0.0943112C27.4223 0.0328804 27.3163 -9.37612e-07 27.2078 0H25.4694C25.3609 -9.37612e-07 25.2549 0.0328804 25.1654 0.0943112C25.076 0.155742 25.0072 0.242839 24.9682 0.344126L24.6572 1.15214C24.2276 1.27631 23.8132 1.44812 23.4217 1.66437L22.6298 1.31266C22.5306 1.26859 22.4204 1.25562 22.3137 1.27546C22.207 1.29529 22.1088 1.347 22.0321 1.42377L20.8029 2.65305C20.7261 2.72979 20.6744 2.82797 20.6546 2.93467C20.6348 3.04136 20.6478 3.15156 20.6918 3.25074L21.0434 4.04251C20.9641 4.18621 20.8908 4.33309 20.8235 4.48277H2.85666C1.28151 4.48277 0 5.76428 0 7.33944V23.297C0 24.8722 1.28151 26.1537 2.85666 26.1537H10.3451V28.7649H7.35139C5.96454 28.7649 4.83616 29.7148 4.83616 30.8824V32.4629C4.83616 32.6054 4.89275 32.742 4.99347 32.8427C5.09419 32.9434 5.23079 33 5.37323 33H25.8738C26.0163 33 26.1529 32.9434 26.2536 32.8427C26.3543 32.742 26.4109 32.6054 26.4109 32.4629V31.4195H32.7245C32.7998 31.4196 32.8744 31.4038 32.9432 31.3731C33.012 31.3424 33.0736 31.2976 33.124 31.2415C33.1744 31.1855 33.2124 31.1195 33.2356 31.0478C33.2587 30.9761 33.2665 30.9003 33.2585 30.8253C33.0494 28.8719 32.1284 27.0673 30.6652 25.7441C30.5435 25.6343 30.4186 25.5282 30.2904 25.4261C30.888 24.8913 31.2471 24.1199 31.2471 23.2971V11.8934L31.8744 11.266C31.9512 11.1893 32.0029 11.0911 32.0227 10.9844C32.0425 10.8777 32.0295 10.7675 31.9855 10.6683L31.6338 9.87641C31.85 9.48498 32.0218 9.07061 32.146 8.64102L32.9541 8.32992ZM20.8029 11.2661L22.0321 12.4954C22.1089 12.572 22.2071 12.6237 22.3138 12.6435C22.4205 12.6633 22.5307 12.6504 22.6299 12.6064L23.4218 12.2547C23.8133 12.4709 24.2276 12.6427 24.6573 12.7669L24.9683 13.5749C25.0073 13.6762 25.076 13.7633 25.1655 13.8247C25.255 13.8862 25.361 13.9191 25.4695 13.9191H27.2079C27.3165 13.9191 27.4224 13.8862 27.5119 13.8247C27.6014 13.7633 27.6702 13.6762 27.7091 13.5749L28.02 12.7672C28.0916 12.7463 28.1627 12.7242 28.2334 12.7006V17.2792C27.4624 16.5609 26.4294 16.1202 25.2949 16.1202C22.9154 16.1202 20.9796 18.0561 20.9796 20.4355C20.9796 20.6868 21.0024 20.9327 21.0438 21.1723H3.01389V7.49666H19.3792V7.82877C19.3792 7.9373 19.412 8.04329 19.4735 8.13276C19.5349 8.22224 19.622 8.291 19.7233 8.32999L20.531 8.64095C20.6553 9.0707 20.8271 9.48523 21.0434 9.87681L20.6919 10.6684C20.6478 10.7676 20.6349 10.8778 20.6547 10.9845C20.6745 11.0912 20.7262 11.1894 20.8029 11.2661ZM25.2966 23.6767H25.2931C23.5067 23.6758 22.0537 22.2222 22.0537 20.4355C22.0537 18.6483 23.5077 17.1944 25.2949 17.1944C27.0821 17.1944 28.5361 18.6483 28.5361 20.4355C28.536 22.2221 27.0831 23.6757 25.2966 23.6767ZM1.07414 23.297V7.33944C1.07414 6.35653 1.87376 5.55691 2.85666 5.55691H19.8071L19.7233 5.58913C19.622 5.62812 19.5349 5.69688 19.4735 5.78636C19.412 5.87583 19.3792 5.98182 19.3792 6.09035V6.42246H2.79846C2.32497 6.42246 1.93976 6.80767 1.93976 7.28116V21.7093C1.93976 21.8517 1.99634 21.9883 2.09706 22.0891C2.19778 22.1898 2.33438 22.2464 2.47682 22.2464H21.3793C21.7176 22.9737 22.2508 23.5931 22.9196 24.0359C22.1534 24.2735 21.4274 24.6254 20.7661 25.0795H2.85666C1.87376 25.0796 1.07414 24.28 1.07414 23.297ZM11.4192 26.1537H19.5036C18.7828 26.9072 18.2163 27.7942 17.8357 28.7649H11.4192V26.1537ZM25.3368 31.9258H5.9103V30.8823C5.9103 30.3167 6.57022 29.839 7.35139 29.839H17.5003C17.4234 30.1638 17.3669 30.4932 17.3312 30.8252C17.3149 30.9768 17.3638 31.1281 17.4657 31.2414C17.5676 31.3547 17.7128 31.4194 17.8652 31.4194H25.3368V31.9258ZM32.1012 30.3453L18.4885 30.3453C19.1162 27.1172 21.9428 24.7514 25.2934 24.7508H25.2962C28.6468 24.7515 31.4734 27.1172 32.1012 30.3453ZM27.67 24.0359C28.8379 23.2629 29.6102 21.9379 29.6102 20.4355C29.6104 19.8929 29.5077 19.3551 29.3075 18.8508V12.2776L30.0475 12.6064C30.0876 12.6238 30.1298 12.6361 30.1729 12.6432V23.297C30.1729 23.9002 29.8627 24.4595 29.3645 24.787C28.8307 24.4717 28.2621 24.2196 27.67 24.0359ZM31.5039 7.7372C31.4225 7.76852 31.3499 7.8192 31.2925 7.88486C31.2351 7.95052 31.1946 8.02917 31.1744 8.11402C31.0526 8.62547 30.85 9.1142 30.5741 9.56176C30.5284 9.63604 30.5015 9.72035 30.4956 9.80738C30.4898 9.89442 30.5052 9.98157 30.5406 10.0613L30.8541 10.7673L30.1465 11.475L29.4409 11.1615C29.3611 11.1261 29.2739 11.1107 29.1869 11.1165C29.0998 11.1224 29.0155 11.1494 28.9412 11.1951C28.4936 11.4711 28.0048 11.6737 27.4932 11.7954C27.4083 11.8155 27.3296 11.8561 27.264 11.9135C27.1983 11.971 27.1476 12.0435 27.1163 12.1249L26.8392 12.8449H25.8383L25.5611 12.1247C25.5298 12.0433 25.4791 11.9708 25.4135 11.9134C25.3478 11.856 25.2692 11.8154 25.1843 11.7952C24.6728 11.6735 24.1841 11.4708 23.7365 11.1949C23.6622 11.1492 23.5779 11.1223 23.4909 11.1164C23.4039 11.1106 23.3167 11.126 23.237 11.1614L22.531 11.475L21.8234 10.7673L22.1367 10.0616C22.1721 9.98189 22.1876 9.89473 22.1817 9.80768C22.1759 9.72063 22.1489 9.63631 22.1032 9.56202C21.8272 9.11439 21.6246 8.62554 21.5029 8.11395C21.4827 8.02911 21.4421 7.95046 21.3847 7.88481C21.3273 7.81915 21.2548 7.76847 21.1734 7.73713L20.4534 7.46001V6.45918L21.1735 6.18199C21.2549 6.15067 21.3274 6.09998 21.3848 6.03433C21.4423 5.96867 21.4828 5.89002 21.503 5.80517C21.6247 5.29366 21.8274 4.80487 22.1033 4.3573C22.149 4.28301 22.176 4.19871 22.1818 4.11167C22.1876 4.02463 22.1722 3.93749 22.1368 3.85776L21.8234 3.15185L22.531 2.44413L23.237 2.75771C23.3167 2.79311 23.4039 2.80857 23.4909 2.80273C23.5779 2.79689 23.6622 2.76994 23.7365 2.72421C24.184 2.4483 24.6727 2.24566 25.1842 2.12397C25.2691 2.1038 25.3477 2.06326 25.4134 2.00585C25.4791 1.94844 25.5298 1.87589 25.5611 1.79448L25.8383 1.07427H26.8391L27.1164 1.79448C27.1477 1.87589 27.1984 1.94844 27.264 2.00585C27.3297 2.06326 27.4084 2.1038 27.4932 2.12397C28.0047 2.24566 28.4934 2.4483 28.9409 2.72421C29.0152 2.76992 29.0995 2.79685 29.1865 2.80269C29.2736 2.80852 29.3607 2.79309 29.4405 2.75771L30.1464 2.44413L30.8541 3.15185L30.5408 3.85749C30.5054 3.93723 30.4899 4.0244 30.4958 4.11144C30.5016 4.19849 30.5286 4.28281 30.5743 4.3571C30.8503 4.80474 31.053 5.29362 31.1746 5.80523C31.1948 5.89008 31.2354 5.96874 31.2928 6.03439C31.3502 6.10005 31.4227 6.15073 31.5041 6.18205L32.2241 6.45918V7.45994L31.5039 7.7372ZM26.3387 3.39078C24.3709 3.39078 22.77 4.99171 22.77 6.95953C22.77 8.92734 24.3709 10.5282 26.3387 10.5282C28.3064 10.5282 29.9074 8.92728 29.9074 6.95953C29.9074 4.99171 28.3065 3.39078 26.3387 3.39078ZM26.3387 9.45414C24.9632 9.45414 23.8441 8.33509 23.8441 6.95959C23.8441 5.5841 24.9632 4.46498 26.3387 4.46498C27.7142 4.46498 28.8332 5.5841 28.8332 6.95959C28.8332 8.33509 27.7142 9.45414 26.3387 9.45414ZM16.9216 8.82873H14.4195C14.277 8.82873 14.1404 8.88531 14.0397 8.98603C13.939 9.08675 13.8824 9.22335 13.8824 9.36579V18.7703H12.8125V11.9921C12.8125 11.8497 12.7559 11.7131 12.6552 11.6124C12.5545 11.5116 12.4179 11.4551 12.2754 11.4551H9.77329C9.63085 11.4551 9.49425 11.5116 9.39353 11.6124C9.29281 11.7131 9.23623 11.8497 9.23623 11.9921V18.7704H8.16639V14.5071C8.16639 14.3647 8.1098 14.2281 8.00908 14.1274C7.90836 14.0267 7.77176 13.9701 7.62932 13.9701H5.12705C4.98461 13.9701 4.84801 14.0267 4.74729 14.1274C4.64657 14.2281 4.58998 14.3647 4.58998 14.5071V19.3075C4.58998 19.4499 4.64657 19.5865 4.74729 19.6872C4.84801 19.7879 4.98461 19.8445 5.12705 19.8445H16.9151C17.0575 19.8445 17.1941 19.7879 17.2949 19.6872C17.3956 19.5865 17.4522 19.4499 17.4522 19.3075H17.4587V9.36579C17.4587 9.22335 17.4021 9.08675 17.3014 8.98603C17.2006 8.88531 17.064 8.82873 16.9216 8.82873ZM14.9565 9.90286H16.3845V18.7703H14.9565V9.90286ZM10.3103 12.5292H11.7383V18.7704H10.3103V12.5292ZM7.09225 15.0441V18.7703H5.66412V15.0441H7.09225Z" fill="url(#paint0_linear_629_1576)"/>
<defs>
<linearGradient id="paint0_linear_629_1576" x1="3.70651" y1="31.5557" x2="32.2419" y2="3.0204" gradientUnits="userSpaceOnUse">
<stop stop-color="#FFE075"/>
<stop offset="1" stop-color="white"/>
</linearGradient>
</defs>
</svg>
