<svg width="53" height="53" viewBox="0 0 53 53" fill="none" xmlns="http://www.w3.org/2000/svg">
<path d="M51.5668 23.0414L45.6353 17.1099V1.55279C45.6353 0.695237 44.9401 0 44.0825 0H37.4296C36.5721 0 35.8768 0.695237 35.8768 1.55279V7.35164L29.9582 1.43302C29.0342 0.508902 27.8056 0 26.4988 0C25.1919 0 23.9632 0.508902 23.0392 1.43302L1.43074 23.0416C-0.476914 24.9491 -0.476914 28.0531 1.43074 29.9606C2.35486 30.8847 3.58343 31.3936 4.89026 31.3936C5.16407 31.3936 5.43405 31.3699 5.69895 31.3262V47.2913C5.69895 50.4403 8.26085 53.0021 11.4098 53.0021H21.5093C22.3668 53.0021 23.0621 52.3068 23.0621 51.4493V39.6963H29.9358V51.4492C29.9358 52.3067 30.631 53.002 31.4886 53.002H41.5879C44.7369 53.002 47.2987 50.4402 47.2987 47.2912V31.3261C47.5635 31.3699 47.8333 31.3935 48.1072 31.3935H48.1075C49.4141 31.3935 50.6427 30.8846 51.567 29.9604C52.491 29.0364 52.9999 27.8078 53 26.501C52.9998 25.1942 52.4909 23.9655 51.5668 23.0414ZM38.9825 3.10558H42.5298V14.0044L38.9825 10.457V3.10558ZM41.5878 49.8964H33.0412V38.1435C33.0412 37.2859 32.3461 36.5907 31.4886 36.5907H21.5092C20.6516 36.5907 19.9564 37.2859 19.9564 38.1435V49.8964H11.4097C9.97317 49.8964 8.80443 48.7278 8.80443 47.2912V29.5056L26.4988 11.8117L44.193 29.5058V47.2913C44.193 48.7277 43.0243 49.8964 41.5878 49.8964ZM49.371 27.7644C49.2054 27.9309 49.0085 28.0629 48.7916 28.1528C48.5747 28.2427 48.3421 28.2886 48.1073 28.288C47.8725 28.2886 47.64 28.2427 47.4232 28.1529C47.2063 28.063 47.0095 27.9311 46.8439 27.7647L46.8435 27.7643L27.5968 8.51768C26.9906 7.91116 26.0074 7.91137 25.4009 8.51768L6.15402 27.7642L6.15351 27.7647C5.81603 28.1022 5.36748 28.288 4.89026 28.288C4.41303 28.288 3.96428 28.1022 3.6267 27.7646C2.93001 27.068 2.93001 25.9342 3.6267 25.2375L25.2351 3.62898C25.4007 3.46252 25.5977 3.33056 25.8146 3.24072C26.0315 3.15088 26.264 3.10495 26.4988 3.10558C26.976 3.10558 27.4248 3.2915 27.7623 3.62898L36.3317 12.1983L49.3708 25.2373C50.0676 25.934 50.0676 27.0679 49.371 27.7644Z" fill="white"/>
</svg>
