<svg width="47" height="53" viewBox="0 0 48 53" fill="none" xmlns="http://www.w3.org/2000/svg">
<path d="M21.9174 11C21.6741 11 21.4407 11.0984 21.2687 11.2735C21.0967 11.4486 21 11.686 21 11.9337V28.7395C21 28.987 21.0967 29.2245 21.2687 29.3996L30.4433 38.7361C30.6161 38.907 30.8482 39.0017 31.0892 39C31.3302 38.9982 31.5608 38.9 31.7312 38.7266C31.9016 38.5531 31.9981 38.3184 32 38.0731C32.0017 37.8279 31.9086 37.5918 31.7406 37.4159L22.8349 28.3529V11.9337C22.8349 11.686 22.7382 11.4486 22.5662 11.2735C22.3941 11.0984 22.1607 11 21.9174 11Z" fill="white"/>
<path d="M21.4325 3.48417e-05C16.352 -0.00820645 11.3766 1.44573 7.10136 4.18798L3.49513 0.285002C3.3812 0.161568 3.23445 0.0731101 3.07203 0.0299839C2.90961 -0.0131424 2.73825 -0.00915353 2.57803 0.0414859C2.41778 0.0922255 2.27527 0.187441 2.16714 0.316027C2.059 0.444613 1.98969 0.60127 1.9673 0.76772L0.197041 14.0322C0.179178 14.1676 0.192823 14.3051 0.236925 14.4342C0.281028 14.5633 0.354392 14.6805 0.451291 14.7767C0.548326 14.8728 0.666248 14.9451 0.795871 14.9881C0.925494 15.0311 1.06331 15.0436 1.19856 15.0246L13.5903 13.2559C13.7499 13.2328 13.9001 13.1666 14.0247 13.0645C14.1494 12.9625 14.2438 12.8283 14.2977 12.6766C14.3519 12.5247 14.3633 12.361 14.3309 12.2032C14.2986 12.0452 14.2236 11.8992 14.1141 11.781L10.7806 8.17376C18.5112 3.69101 28.2232 4.52214 35.0777 10.2529C41.9321 15.9836 44.4631 25.3879 41.4092 33.7801C38.3558 42.1725 30.3705 47.7576 21.4325 47.7524H21.4216C20.7228 47.7524 19.9691 47.754 19.275 47.6695C19.1596 47.6555 19.0979 47.6199 18.9858 47.6512C18.8739 47.6824 18.7692 47.7354 18.6777 47.8071C18.5862 47.8788 18.5097 47.9678 18.4527 48.0691C18.3956 48.1702 18.3591 48.2817 18.3452 48.3971C18.3312 48.5123 18.3401 48.6293 18.3714 48.7412C18.4027 48.853 18.4557 48.9577 18.5275 49.0491C18.5993 49.1405 18.6884 49.2169 18.7897 49.2738C18.891 49.3308 19.0026 49.3672 19.1181 49.381C19.8813 49.4739 20.6501 49.5205 21.419 49.521H21.4325C31.2562 49.5287 40.0021 43.3054 43.2059 34.0275C46.4098 24.7492 43.3653 14.4624 35.6261 8.41695C27.8872 2.3714 17.1602 1.90029 8.92052 7.24413C8.81275 7.31449 8.72159 7.40744 8.65338 7.51653C8.58517 7.62562 8.54155 7.74824 8.52553 7.87586C8.50969 8.0035 8.5219 8.13307 8.56131 8.2555C8.6007 8.37795 8.66635 8.49035 8.75368 8.58485L11.6748 11.7438L2.10659 13.1109L3.47311 2.86882L6.30574 5.94101C6.4498 6.09723 6.64533 6.19642 6.85657 6.22045C7.06782 6.24448 7.28066 6.19175 7.45619 6.07188C16.2509 0.0807252 27.892 0.369228 36.3785 6.78861C44.8646 13.2076 48.3005 24.324 44.9143 34.4059C41.5284 44.4876 32.0769 51.2836 21.4325 51.2896C20.2928 51.29 19.1548 51.2121 18.0255 51.0582C17.7951 51.0302 17.5628 51.0939 17.3789 51.2356C17.1951 51.3771 17.0743 51.5853 17.0426 51.8151C17.011 52.0449 17.0709 52.278 17.2095 52.464C17.3482 52.6501 17.5416 52.7117 17.771 52.7473C27.597 54.1001 37.3708 49.9321 43.0952 41.8395C48.8196 33.7473 49.5521 23.1422 44.995 14.3405C40.4379 5.53898 31.3508 0.0086568 21.4325 3.48417e-05Z" fill="white"/>
<path d="M32.3332 48.77C22.7706 53.4405 11.2908 51.4887 3.81245 43.921C3.01188 43.1105 2.26832 42.2464 1.58519 41.3349C1.44326 41.1513 1.23481 41.0309 1.00477 40.9995C0.774739 40.9682 0.541586 41.0284 0.355619 41.1673C0.169578 41.306 0.0455555 41.5123 0.0102802 41.7416C-0.0249951 41.9709 0.0312998 42.2048 0.16703 42.393C6.10223 50.3326 15.9191 54.2538 25.706 52.6437L32.3332 48.77Z" fill="white"/>
<path d="M30.318 45.8373C22.193 49.5579 12.6056 47.7991 6.33342 41.4373L6.3258 41.4297C5.83513 40.9325 5.37518 40.4056 4.94812 39.8525C4.87703 39.7606 4.7885 39.6836 4.68761 39.6259C4.58671 39.5682 4.47542 39.5309 4.3601 39.5161C4.24478 39.5014 4.12767 39.5095 4.01548 39.54C3.9033 39.5705 3.79823 39.6228 3.70627 39.6939C3.61425 39.7648 3.53715 39.8533 3.47936 39.9541C3.42159 40.0549 3.38425 40.1661 3.36952 40.2813C3.35478 40.3966 3.36293 40.5136 3.39349 40.6257C3.42406 40.7377 3.47643 40.8427 3.54763 40.9345C4.01733 41.5426 4.52394 42.1223 5.06347 42.6696L5.07295 42.6792C11.9652 49.6728 22.5492 51.4904 31.411 47.255L30.318 45.8373Z" fill="white"/>
</svg>
