<svg width="53" height="53" viewBox="0 0 53 53" fill="none" xmlns="http://www.w3.org/2000/svg">
        <path d="M26.5097 6.0758e-06C26.3451 6.0758e-06 26.1842 0.0313041 26.0411 0.103289L0.484257 12.5818C0.332309 12.6564 0.206784 12.7661 0.121465 12.899C0.0361462 13.0319 -0.0056669 13.1828 0.000617041 13.3351C0.00690098 13.4874 0.0610392 13.6353 0.157087 13.7624C0.253134 13.8896 0.387376 13.9911 0.545072 14.0559L6.62662 16.5441V19.048H5.68219C5.43138 19.0471 5.19041 19.1333 5.01206 19.2876C4.8337 19.4418 4.7325 19.6517 4.73061 19.8711V27.3231C4.73061 27.7832 5.15632 28.1557 5.68219 28.1557H9.47064C9.99293 28.1557 10.4115 27.7801 10.4115 27.3231V19.8742C10.4115 19.6556 10.3125 19.4459 10.1361 19.2911C9.95979 19.1362 9.72049 19.0488 9.47064 19.048H8.51905V17.3266L15.5844 20.2154C15.8491 20.7975 16.2569 21.4078 16.8257 21.9681V22.1965C15.0227 22.3655 13.6454 23.7646 13.6454 25.439C13.6454 27.1948 15.1551 28.6783 17.1763 28.694C17.2586 28.694 17.3194 28.694 17.3981 28.6877C18.0635 30.2839 19.2762 31.6642 20.8217 32.6469V34.4434L20.5426 34.1993C20.4536 34.1211 20.3476 34.0592 20.2309 34.0173C20.1142 33.9754 19.9891 33.9543 19.8629 33.9552C19.6167 33.9591 19.382 34.0466 19.2083 34.1993L16.5825 36.4934C11.9354 36.8409 7.12745 39.5074 4.92021 44.1865C4.76638 44.5621 3.78976 46.4118 3.78976 49.2411V52.1706C3.78976 52.6276 4.20831 53 4.73061 53H48.2709C48.7932 53 49.2153 52.6244 49.2153 52.1706V49.2411C49.2153 46.9564 48.5714 45.2099 48.0384 44.1082C45.9456 39.6921 41.2521 36.8628 36.419 36.4903L33.7968 34.1993C33.709 34.1218 33.6045 34.0603 33.4894 34.0183C33.3743 33.9763 33.2508 33.9547 33.1261 33.9547C33.0013 33.9547 32.8778 33.9763 32.7627 34.0183C32.6476 34.0603 32.5431 34.1218 32.4553 34.1993L32.1834 34.4372V32.6438C33.7253 31.6642 34.938 30.2808 35.6034 28.6877C35.6821 28.694 35.7465 28.6971 35.8288 28.6971C37.8035 28.6971 39.3596 27.2011 39.3596 25.439C39.3596 23.7896 38.0145 22.3718 36.1758 22.2028L36.1829 21.9555C36.716 21.4454 37.1488 20.7975 37.4171 20.2185L52.4564 14.0591C52.6134 13.9943 52.7471 13.893 52.8428 13.7663C52.9385 13.6397 52.9927 13.4924 52.9993 13.3407C53.0059 13.1889 52.9648 13.0385 52.8805 12.9058C52.7961 12.7731 52.6717 12.6632 52.5208 12.5881L26.964 0.10016C26.8246 0.0339183 26.6683 -0.000526168 26.5097 6.0758e-06ZM26.5025 1.78086L49.9845 13.2359L37.943 18.1716C37.9845 17.6907 37.9581 17.2072 37.8643 16.7319V11.9151C37.8508 11.5558 37.688 11.213 37.4064 10.9512C37.1609 10.7184 36.8702 10.5256 36.5478 10.3815C35.7662 10.0404 34.9361 9.79198 34.0794 9.64291C32.0976 9.24543 29.4431 9.01069 26.5025 9.01069C23.5584 9.01069 20.9039 9.24543 18.9185 9.64291C18.063 9.79221 17.2341 10.0406 16.4537 10.3815C16.1313 10.5256 15.8406 10.7184 15.5951 10.9512C15.3148 11.2135 15.1533 11.5562 15.1408 11.9151V16.7194C15.1014 16.9009 15.012 17.4142 15.0657 18.1716L8.51905 15.4925V10.5537L26.5025 1.78086ZM33.6573 11.2548C34.3462 11.3767 35.0154 11.5722 35.6499 11.8369C35.8288 11.9245 35.9289 11.9934 35.9719 12.0309V14.998C35.3608 14.78 34.7287 14.6103 34.083 14.491C32.0976 14.0935 29.4431 13.8619 26.499 13.8619C23.5584 13.8619 20.9039 14.0935 18.9221 14.4878C18.2786 14.6077 17.6479 14.7752 17.0368 14.9886V12.0309C17.1333 11.9535 17.2417 11.8882 17.3588 11.8369C17.7523 11.6491 18.4499 11.4332 19.3406 11.2548C21.1186 10.9011 23.6764 10.6695 26.5025 10.6695C29.3287 10.6695 31.8758 10.9011 33.6573 11.2548ZM6.62304 11.4801V14.7101L3.02062 13.239L6.62304 11.4801ZM33.6537 16.1028C34.5481 16.2812 35.2492 16.5034 35.6499 16.6912C35.7715 16.7538 35.9325 16.8414 35.9719 16.879C35.9759 16.9172 35.9843 16.9549 35.9969 16.9917C36.0184 17.0856 36.4369 19.1919 34.8164 20.8006H29.6721C27.3683 20.8006 25.4257 19.2983 25.0823 17.3391C25.0421 17.1364 24.9173 16.9541 24.7321 16.8274C24.5469 16.7007 24.3144 16.6388 24.08 16.6536C23.8455 16.6684 23.6256 16.7589 23.4631 16.9076C23.3007 17.0562 23.2071 17.2524 23.2006 17.458C23.1894 18.3447 22.7803 19.1921 22.0616 19.8173C21.3429 20.4426 20.3721 20.7958 19.3585 20.8006H18.1851C16.5109 19.0793 17.0189 17.0042 17.0261 16.8947C17.127 16.8137 17.2401 16.7452 17.3623 16.6912C17.7558 16.5034 18.4391 16.2875 19.3299 16.1122C21.1079 15.7554 23.68 15.5175 26.5061 15.5175C29.3323 15.5175 31.8793 15.7491 33.6609 16.1028H33.6537ZM24.2989 19.9744C24.8941 20.7411 25.6953 21.3683 26.6321 21.801C27.5689 22.2337 28.6127 22.4587 29.6721 22.4563H34.2869V25.7833C34.2869 29.539 30.8312 32.5812 26.5025 32.5812C25.4803 32.5845 24.4673 32.411 23.5219 32.0708C22.5765 31.7305 21.7172 31.2301 20.9935 30.5984C20.2698 29.9667 19.696 29.2162 19.3049 28.3898C18.9138 27.5635 18.7132 26.6777 18.7146 25.7833V22.4563H19.3514C21.7017 22.4563 23.4689 21.2388 24.2989 19.9744ZM6.62662 20.7005H8.51905V26.4969H6.62304L6.62662 20.7005ZM16.8222 23.8804V25.7864C16.8222 26.2058 16.8579 26.6189 16.9223 27.0196C16.1961 26.9163 15.5379 26.2778 15.5379 25.439C15.5379 24.6659 16.1067 24.0212 16.8222 23.8804ZM36.1758 23.8804C36.8698 24.0275 37.4601 24.6409 37.4601 25.439C37.4601 26.2778 36.8161 26.91 36.072 27.0164C36.1408 26.6092 36.1755 26.1981 36.1758 25.7864V23.8804ZM22.7105 33.5702C23.8767 34.0021 25.1539 34.2369 26.499 34.2369C27.8 34.2412 29.0886 34.0155 30.2874 33.5733V36.0928L26.4954 39.4104L22.7105 36.096V33.5702ZM19.8665 35.9551L25.161 40.5778L23.6621 41.8923L18.3747 37.2602L19.8665 35.9551ZM33.1207 35.9551L34.6232 37.2696L29.343 41.8955L27.8333 40.5778L33.1207 35.9551ZM36.2938 38.146C40.3184 38.4903 44.0711 40.6968 46.0243 44.2178C46.8826 45.7856 47.3253 47.5027 47.3193 49.2411V51.3443H40.694V48.8624C40.694 48.3929 40.2647 48.0236 39.7317 48.0299C39.6081 48.0311 39.4861 48.0536 39.3725 48.0961C39.2588 48.1386 39.1559 48.2003 39.0695 48.2776C38.9832 48.3549 38.915 48.4463 38.8691 48.5467C38.8231 48.647 38.8002 48.7543 38.8016 48.8624V51.3443H14.1999V48.8624C14.1999 48.3929 13.7706 48.0236 13.234 48.0299C13.1105 48.0311 12.9884 48.0536 12.8748 48.0961C12.7612 48.1386 12.6583 48.2003 12.5719 48.2776C12.4855 48.3549 12.4174 48.4463 12.3714 48.5467C12.3254 48.647 12.3025 48.7543 12.3039 48.8624V51.3443H5.68219V49.2411C5.68219 47.6887 6.01846 46.2302 6.63735 44.8938C8.30441 41.2633 12.1286 38.5341 16.7077 38.1491L22.9931 43.645C23.3652 43.9674 23.959 43.9674 24.3311 43.645L26.5025 41.7484L28.674 43.645C29.0461 43.9674 29.6399 43.9674 30.0084 43.645L36.2938 38.146Z" fill="white"/>
        </svg>