<?xml version="1.0" standalone="no"?>
<!DOCTYPE svg PUBLIC "-//W3C//DTD SVG 20010904//EN"
 "http://www.w3.org/TR/2001/REC-SVG-20010904/DTD/svg10.dtd">
<svg version="1.0" xmlns="http://www.w3.org/2000/svg"
 width="180.000000pt" height="152.000000pt" viewBox="0 0 180.000000 152.000000"
 preserveAspectRatio="xMidYMid meet">

<g transform="translate(0.000000,152.000000) scale(0.100000,-0.100000)"
fill="#000000" stroke="none">
<path d="M1523 1337 l-232 -162 58 -59 59 -59 46 32 c51 35 53 32 32 -45 l-14
-52 64 -63 c35 -35 65 -61 68 -58 5 5 166 602 166 618 0 6 -3 11 -7 11 -5 0
-112 -73 -240 -163z"/>
<path d="M590 1266 c-228 -61 -424 -115 -434 -119 -17 -7 -4 -24 99 -127 l118
-118 -44 -12 c-198 -53 -292 -79 -297 -85 -3 -3 169 -181 383 -395 l390 -390
57 57 58 58 -292 292 c-161 161 -290 294 -288 296 3 2 41 14 85 25 l80 22 262
-262 263 -263 57 58 58 57 -229 229 -229 229 39 11 c21 5 61 16 87 23 l48 12
96 -96 97 -97 -13 -66 -14 -67 59 -59 c32 -32 62 -59 66 -59 4 0 12 19 18 43
19 74 18 73 53 39 l33 -32 53 54 54 55 -85 91 c-47 50 -152 155 -232 232
l-147 141 -172 -46 -172 -47 -53 53 c-45 45 -50 53 -35 60 10 4 126 37 258 72
l240 64 93 -93 94 -93 -17 -58 -17 -58 65 -65 c46 -46 68 -62 71 -51 3 7 10
34 16 58 l12 44 97 -97 96 -96 58 58 57 57 -288 288 c-158 158 -289 287 -292
286 -3 0 -192 -51 -420 -113z"/>
</g>
</svg>
