<svg width="32" height="34" viewBox="0 0 32 31" fill="none" xmlns="http://www.w3.org/2000/svg">
    <path d="M16.0915 9.04167C16.0915 7.67138 15.5471 6.35722 14.5782 5.38828C13.6093 4.41934 12.2951 3.875 10.9248 3.875H3.1748V23.25H12.2165C13.2442 23.25 14.2298 23.6583 14.9565 24.385C15.6832 25.1117 16.0915 26.0973 16.0915 27.125M16.0915 9.04167V27.125M16.0915 9.04167C16.0915 7.67138 16.6358 6.35722 17.6048 5.38828C18.5737 4.41934 19.8879 3.875 21.2581 3.875H29.0081V23.25H19.9665C18.9388 23.25 17.9531 23.6583 17.2264 24.385C16.4997 25.1117 16.0915 26.0973 16.0915 27.125" stroke="white" stroke-width="2" stroke-linecap="round" stroke-linejoin="round" />
</svg>
