<svg width="376" height="274" viewBox="0 0 376 274" fill="none" xmlns="http://www.w3.org/2000/svg">
<path fill-rule="evenodd" clip-rule="evenodd" d="M0 264.533C0 266.797 0.899047 268.967 2.49936 270.567C4.09967 272.168 6.27015 273.067 8.53333 273.067H366.933C369.197 273.067 371.367 272.168 372.967 270.567C374.568 268.967 375.467 266.797 375.467 264.533V8.53333C375.467 6.27015 374.568 4.09967 372.967 2.49936C371.367 0.899047 369.197 0 366.933 0H8.53333C6.27015 0 4.09967 0.899047 2.49936 2.49936C0.899047 4.09967 0 6.27015 0 8.53333V264.533ZM358.4 17.0667H17.0667V35.0379L187.733 165.888L358.4 35.0379V17.0667ZM358.4 243.934L252.314 137.847L358.4 56.5419V243.934ZM29.1328 256L136.823 148.309L182.545 183.381C184.034 184.522 185.858 185.14 187.733 185.14C189.609 185.14 191.432 184.522 192.922 183.381L238.66 148.326L346.334 256H29.1328ZM17.0667 56.5419L123.153 137.847L17.0667 243.934V56.5419Z" fill="#0F1734"/>
</svg>
