<svg class="info-icon" width="31" height="33" viewBox="0 0 31 31" fill="none" xmlns="http://www.w3.org/2000/svg">
    <path d="M21.704 0C16.5768 0 12.4053 4.17152 12.4053 9.29875C12.4053 11.7051 13.3109 13.9688 14.9614 15.7025C14.8018 16.6556 14.4324 17.4403 13.8068 18.1568C13.6993 18.2811 13.6335 18.436 13.6186 18.5997C13.6038 18.7634 13.6407 18.9276 13.7241 19.0691C13.8046 19.2092 13.9275 19.3201 14.075 19.3859C14.2225 19.4517 14.387 19.469 14.545 19.4354C15.8721 19.1766 17.1259 18.6497 18.1896 17.9073C19.3044 18.3663 20.4988 18.601 21.7045 18.598C26.8317 18.598 31.0032 14.4265 31.0032 9.29926C31.0032 4.17204 26.8312 0 21.704 0ZM21.704 17.5643C20.5292 17.5643 19.3958 17.322 18.3363 16.8447C18.2519 16.807 18.1589 16.7925 18.067 16.8027C17.9752 16.8128 17.8876 16.8473 17.8135 16.9025C17.005 17.5106 16.0566 17.9719 15.0353 18.2571C15.5751 17.4734 15.8923 16.6096 16.0219 15.5883C16.0319 15.5099 16.0237 15.4302 15.998 15.3554C15.9723 15.2806 15.9298 15.2127 15.8737 15.157C15.099 14.3911 14.4846 13.4785 14.0664 12.4726C13.6482 11.4667 13.4346 10.3876 13.4379 9.29823C13.4379 4.74081 17.1461 1.03268 21.7034 1.03268C26.2608 1.03268 29.969 4.74081 29.969 9.29823C29.969 13.8556 26.2608 17.5638 21.7034 17.5638L21.704 17.5643Z" fill="white" stroke="white" stroke-width="0.5" />
    <path d="M10.2988 10.4384C10.6341 10.1066 10.8496 9.67266 10.9112 9.20495C10.9728 8.73724 10.8772 8.26232 10.6393 7.85494L7.91476 3.14202C7.49477 2.41879 6.70387 1.9988 5.89591 2.07629C5.01254 2.16462 3.65596 2.57273 2.21157 4.01766C-1.39064 7.61937 -1.19537 15.0837 7.35942 23.6401C12.6225 28.9011 17.4712 31 21.263 31C23.6378 31 25.5983 30.1761 26.9848 28.7895C28.4297 27.3446 28.8384 25.9875 28.9262 25.1036V25.1015C29.0026 24.2967 28.5837 23.5073 27.8599 23.0899L23.1491 20.3602C22.7407 20.124 22.2658 20.0292 21.798 20.0905C21.3303 20.1518 20.8958 20.3657 20.562 20.6991L18.367 22.8941C18.2132 23.0504 18.0151 23.1556 17.7995 23.1955C17.584 23.2354 17.3613 23.2081 17.1618 23.1173C16.08 22.6317 14.2844 21.5453 11.8698 19.1302C9.45679 16.7141 8.37091 14.9204 7.88377 13.8407C7.79297 13.6412 7.76564 13.4185 7.80546 13.2029C7.84528 12.9872 7.95033 12.789 8.10642 12.635L10.2988 10.4384ZM5.99562 3.10483C6.02609 3.10173 6.05657 3.10018 6.08705 3.10018C6.46003 3.10018 6.81907 3.31302 7.02105 3.66017L9.7466 8.37464C9.86927 8.58475 9.91844 8.82974 9.88635 9.07091C9.85426 9.31208 9.74275 9.53569 9.56941 9.70642L9.22226 10.0546L5.46404 3.20143C5.6386 3.15612 5.81628 3.12383 5.99562 3.10483ZM22.6315 21.2544L27.3433 23.9846C27.7184 24.2011 27.9359 24.6004 27.8982 25.0029C27.8821 25.1625 27.8496 25.3438 27.8 25.5396L20.9438 21.7788L21.2925 21.4301C21.4653 21.2577 21.6902 21.1471 21.9322 21.1154C22.1743 21.0836 22.42 21.1325 22.6315 21.2544ZM6.94202 14.2659C7.46429 15.4236 8.61578 17.3345 11.1388 19.8612C13.665 22.3873 15.5779 23.5388 16.7382 24.0601C17.1294 24.234 17.5641 24.2856 17.9852 24.208C18.4063 24.1303 18.794 23.9271 19.0975 23.6251L20.1828 22.5397L27.4193 26.5098C27.1692 26.9871 26.8035 27.5104 26.2544 28.0596C23.0158 31.2976 16.1441 30.9603 8.08989 22.9101C0.0392893 14.8579 -0.296497 7.98615 2.94203 4.74761C3.4922 4.19692 4.01654 3.83117 4.49439 3.58113L8.46183 10.8161L7.37544 11.9045C7.0735 12.2083 6.87052 12.5963 6.79317 13.0176C6.71581 13.4388 6.7677 13.8736 6.94202 14.2649V14.2659ZM21.4449 6.71636C22.4419 6.71636 23.2529 5.9053 23.2529 4.90827C23.2529 3.91124 22.4419 3.10018 21.4449 3.10018C20.4478 3.10018 19.6368 3.91124 19.6368 4.90827C19.6368 5.9053 20.4478 6.71636 21.4449 6.71636ZM21.4449 4.13337C21.8721 4.13337 22.2198 4.48104 22.2198 4.90827C22.2198 5.3355 21.8721 5.68317 21.4449 5.68317C21.0176 5.68317 20.67 5.3355 20.67 4.90827C20.67 4.48104 21.0176 4.13337 21.4449 4.13337Z" fill="white" stroke="white" stroke-width="0.5" />
    <path d="M23.7157 12.8257L23.2534 12.5948V8.78124C23.2534 8.21143 22.79 7.74805 22.2202 7.74805H20.1538C19.584 7.74805 19.1206 8.21143 19.1206 8.78124V9.49518C19.1206 9.88986 19.3397 10.2437 19.6915 10.4194L20.1538 10.6503V12.5948L19.692 12.8257C19.5197 12.9107 19.3748 13.0425 19.2738 13.2059C19.1728 13.3693 19.1197 13.5578 19.1206 13.7499V14.4638C19.1206 15.0336 19.584 15.497 20.1538 15.497H23.2534C23.8232 15.497 24.2866 15.0336 24.2866 14.4638V13.7499C24.2866 13.3552 24.0675 13.0013 23.7157 12.8257ZM23.2534 13.7499V14.4638H20.1538V13.7499L20.6156 13.519C20.7879 13.4339 20.9328 13.3021 21.0338 13.1387C21.1348 12.9753 21.1879 12.7869 21.187 12.5948V10.6503C21.187 10.2556 20.968 9.90174 20.6162 9.7261L20.1538 9.49518V8.78124H22.2202V12.5948C22.2202 12.9894 22.4392 13.3433 22.791 13.519L23.2534 13.7499Z" fill="white" stroke="white" stroke-width="0.5" />
</svg>
