<svg width="280" height="512" viewBox="0 0 280 512" fill="none" xmlns="http://www.w3.org/2000/svg">
<path d="M224.813 0H54.456C24.3917 0.0338182 0.0305455 24.396 0 54.4604V457.543C0.0294546 487.607 24.3927 511.968 54.456 511.999H224.813C254.877 511.969 279.238 487.606 279.273 457.543V54.4604C279.239 24.396 254.877 0.0349091 224.813 0ZM255.997 457.543C255.98 474.759 242.028 488.71 224.813 488.728H54.456C37.2404 488.71 23.2887 474.759 23.2713 457.543V54.4604C23.2887 37.2404 37.2404 23.2887 54.456 23.2713H224.813C242.028 23.2887 255.98 37.2404 255.997 54.4604V457.543Z" fill="#0F1734"/>
<path d="M174.546 46.5469H104.727C98.302 46.5469 93.0896 51.7538 93.0896 58.1803C93.0896 64.6069 98.3009 69.8182 104.727 69.8182H174.546C180.971 69.8182 186.179 64.6069 186.179 58.1803C186.179 51.7538 180.972 46.5469 174.546 46.5469ZM162.908 442.181C162.908 455.037 152.49 465.456 139.637 465.456C126.78 465.456 116.361 455.038 116.361 442.181C116.361 429.329 126.779 418.909 139.637 418.909C152.489 418.909 162.908 429.328 162.908 442.181Z" fill="#0F1734"/>
</svg>
