<svg width="53" height="53" viewBox="0 0 53 53" fill="none" xmlns="http://www.w3.org/2000/svg">
        <path d="M14.1393 14.5504C14.139 15.6983 13.8726 16.8316 13.3596 17.8667C12.8466 18.9018 12.1002 19.8124 11.1753 20.5315H22.9712C24.6109 20.5315 26.1834 19.9013 27.3428 18.7796C28.5022 17.658 29.1536 16.1367 29.1536 14.5504C29.1536 12.9641 28.5022 11.4428 27.3428 10.3211C26.1834 9.19948 24.6109 8.56934 22.9712 8.56934H11.1753C12.1002 9.2884 12.8466 10.199 13.3596 11.2341C13.8726 12.2692 14.139 13.4025 14.1393 14.5504ZM37.1023 14.5504C37.102 15.6983 36.8356 16.8316 36.3226 17.8667C35.8096 18.9018 35.0632 19.8124 34.1383 20.5315H46.8174C48.4571 20.5315 50.0296 19.9013 51.189 18.7796C52.3484 17.658 52.9998 16.1367 52.9998 14.5504C52.9998 12.9641 52.3484 11.4428 51.189 10.3211C50.0296 9.19948 48.4571 8.56934 46.8174 8.56934H34.1383C35.0632 9.2884 35.8096 10.199 36.3226 11.2341C36.8356 12.2692 37.102 13.4025 37.1023 14.5504Z" fill="white"/>
        <path d="M5.30762 20.463V16.5437C5.30855 15.7887 5.61899 15.0648 6.17083 14.531C6.72268 13.9971 7.47087 13.6967 8.2513 13.6958H12.3025C12.1401 12.5963 11.6643 11.5622 10.9287 10.7095C10.193 9.85679 9.22637 9.2191 8.13718 8.8679C7.04798 8.51669 5.87922 8.46585 4.76183 8.72106C3.64445 8.97627 2.6226 9.52745 1.81077 10.3128C0.998939 11.0982 0.429207 12.0868 0.165409 13.1678C-0.0983896 14.2488 -0.0458322 15.3795 0.317192 16.4333C0.680216 17.487 1.33936 18.4221 2.22078 19.1339C3.1022 19.8456 4.17107 20.3058 5.30762 20.463Z" fill="white"/>
        <path d="M8.25151 15.4048C7.93942 15.4052 7.64024 15.5254 7.41956 15.7389C7.19887 15.9524 7.07469 16.2418 7.07422 16.5437V20.4631C8.39333 20.2789 9.61542 19.6867 10.5578 18.775C11.5002 17.8632 12.1124 16.6809 12.3027 15.4048H8.25151ZM9.2822 43.6012C8.69661 43.6012 8.135 43.8263 7.72092 44.2269C7.30684 44.6274 7.07422 45.1708 7.07422 45.7373C7.07422 46.3038 7.30684 46.8472 7.72092 47.2477C8.135 47.6483 8.69661 47.8734 9.2822 47.8734H48.1259C47.5722 46.4997 47.5722 44.9749 48.1259 43.6012H9.2822Z" fill="white"/>
        <path d="M51.2337 40.1833C51.2337 39.73 51.0476 39.2954 50.7163 38.9749C50.3851 38.6544 49.9358 38.4744 49.4673 38.4744H9.28204C7.29102 38.4744 5.38155 39.2396 3.97369 40.6016C2.56583 41.9636 1.7749 43.8109 1.7749 45.7371C1.7749 47.6633 2.56583 49.5106 3.97369 50.8726C5.38155 52.2346 7.29102 52.9998 9.28204 52.9998H49.4673C49.9358 52.9998 50.3851 52.8198 50.7163 52.4993C51.0476 52.1788 51.2337 51.7442 51.2337 51.2909C51.2337 50.8377 51.0476 50.4031 50.7163 50.0826C50.3851 49.7621 49.9358 49.5821 49.4673 49.5821H9.28204C8.22797 49.5821 7.21708 49.177 6.47174 48.4559C5.7264 47.7348 5.30767 46.7568 5.30767 45.7371C5.30767 44.7173 5.7264 43.7394 6.47174 43.0183C7.21708 42.2972 8.22797 41.8921 9.28204 41.8921H49.4673C49.9358 41.8921 50.3851 41.7121 50.7163 41.3916C51.0476 41.0711 51.2337 40.6365 51.2337 40.1833ZM43.7265 31.6389C44.3121 31.6389 44.8738 31.4138 45.2878 31.0132C45.7019 30.6126 45.9345 30.0693 45.9345 29.5028C45.9345 28.9363 45.7019 28.3929 45.2878 27.9923C44.8738 27.5917 44.3121 27.3667 43.7265 27.3667H4.88286C5.43658 28.7404 5.43658 30.2652 4.88286 31.6389H43.7265Z" fill="white"/>
        <path d="M43.7265 22.2403H3.54129C3.07281 22.2403 2.62353 22.4203 2.29226 22.7408C1.961 23.0613 1.7749 23.4959 1.7749 23.9491C1.7749 24.4024 1.961 24.837 2.29226 25.1575C2.62353 25.478 3.07281 25.658 3.54129 25.658H43.7265C44.7806 25.658 45.7915 26.0631 46.5368 26.7842C47.2822 27.5052 47.7009 28.4832 47.7009 29.503C47.7009 30.5227 47.2822 31.5007 46.5368 32.2218C45.7915 32.9429 44.7806 33.3479 43.7265 33.3479H3.54129C3.07281 33.3479 2.62353 33.528 2.29226 33.8485C1.961 34.1689 1.7749 34.6036 1.7749 35.0568C1.7749 35.51 1.961 35.9447 2.29226 36.2652C2.62353 36.5857 3.07281 36.7657 3.54129 36.7657H43.7265C45.7176 36.7657 47.627 36.0005 49.0349 34.6385C50.4428 33.2765 51.2337 31.4292 51.2337 29.503C51.2337 27.5768 50.4428 25.7295 49.0349 24.3675C47.627 23.0054 45.7176 22.2403 43.7265 22.2403ZM28.7829 9.32801C29.5282 10.0977 30.101 11.0082 30.4654 12.0022C30.8297 12.9963 30.9777 14.0524 30.9001 15.1045C30.8224 16.1565 30.5209 17.1816 30.0143 18.1155C29.5077 19.0494 28.807 19.8719 27.9563 20.5314H29.1539C30.6316 20.5323 32.0609 20.0211 33.1826 19.0904C34.3044 18.1597 35.0444 16.871 35.2686 15.4579C35.4929 14.0448 35.1865 12.6007 34.405 11.3873C33.6235 10.174 32.4186 9.27152 31.0086 8.84355C32.9746 8.17708 35.9421 7.074 36.8217 6.22469C37.1755 5.88844 37.457 5.48771 37.6498 5.04566C37.8426 4.6036 37.9431 4.12897 37.9453 3.64916C37.9475 3.16936 37.8514 2.69388 37.6626 2.25019C37.4738 1.8065 37.1961 1.40338 36.8454 1.0641C36.4947 0.724824 36.078 0.456112 35.6194 0.273479C35.1608 0.0908462 34.6693 -0.00209012 34.1733 3.566e-05C33.6774 0.00216144 33.1868 0.0993072 32.7298 0.285864C32.2729 0.472422 31.8587 0.744695 31.5111 1.08696C30.7675 1.80213 29.8419 3.95531 29.1539 5.75646C28.4685 3.95531 27.542 1.80213 26.8037 1.08696C26.4561 0.744695 26.0419 0.472422 25.585 0.285864C25.128 0.0993072 24.6374 0.00216144 24.1415 3.566e-05C23.6455 -0.00209012 23.1541 0.0908462 22.6954 0.273479C22.2368 0.456112 21.8201 0.724824 21.4694 1.0641C21.1187 1.40338 20.841 1.8065 20.6522 2.25019C20.4634 2.69388 20.3674 3.16936 20.3695 3.64916C20.3717 4.12897 20.4722 4.6036 20.665 5.04566C20.8578 5.48771 21.1393 5.88844 21.4931 6.22469C22.65 7.34401 27.4537 8.91105 28.7829 9.32801ZM32.7573 2.29599C32.9419 2.11736 33.1611 1.97566 33.4024 1.87899C33.6436 1.78231 33.9022 1.73255 34.1633 1.73255C34.4245 1.73255 34.683 1.78231 34.9243 1.87899C35.1655 1.97566 35.3847 2.11736 35.5694 2.29599C35.754 2.47463 35.9005 2.68669 36.0004 2.92009C36.1004 3.15348 36.1518 3.40363 36.1518 3.65626C36.1518 3.90888 36.1004 4.15903 36.0004 4.39243C35.9005 4.62582 35.754 4.83789 35.5694 5.01652C35.0439 5.52918 32.6548 6.46308 30.4963 7.20388C31.2603 5.11136 32.23 2.80438 32.7555 2.29599H32.7573ZM22.7437 2.29599C23.1167 1.93556 23.6224 1.73311 24.1497 1.73311C24.677 1.73311 25.1827 1.93556 25.5557 2.29599C26.0857 2.80866 27.051 5.11564 27.8167 7.20388C25.6547 6.46308 23.2692 5.52491 22.7437 5.01652C22.3711 4.6557 22.1616 4.16663 22.1613 3.65661C22.161 3.14659 22.3698 2.65727 22.7419 2.29599H22.7437Z" fill="white"/>
        </svg>