<svg width="53" height="53" viewBox="0 0 53 53" fill="none" xmlns="http://www.w3.org/2000/svg">
                        <path
                            d="M51.2492 29.0769C51.2482 27.702 50.9037 26.3478 50.2451 25.1293C49.5866 23.9109 48.6334 22.8642 47.4667 22.0785C49.1647 21.7131 50.6638 20.7551 51.6771 19.3878C52.6903 18.0205 53.1466 16.3399 52.9586 14.6676C52.7705 12.9953 51.9514 11.4488 50.6579 10.3241C49.3644 9.19929 47.6874 8.57524 45.9478 8.57133H34.1079C35.365 8.14513 36.5456 7.53168 37.6069 6.75317C37.991 6.38838 38.2965 5.95363 38.5059 5.47402C38.7152 4.99441 38.8242 4.47945 38.8266 3.95887C38.829 3.43829 38.7247 2.92241 38.5198 2.44101C38.3149 1.95962 38.0133 1.52226 37.6326 1.15418C37.2519 0.786096 36.7996 0.494592 36.3017 0.296498C35.8039 0.0984046 35.2703 -0.00235376 34.732 4.17312e-05C34.1936 0.00243722 33.6611 0.107939 33.1651 0.310455C32.6692 0.512971 32.2196 0.808488 31.8424 1.17994C30.9977 1.99247 29.926 4.53858 29.1599 6.57204C28.393 4.53687 27.3203 1.99504 26.4774 1.17994C26.1002 0.808488 25.6506 0.512971 25.1547 0.310455C24.6587 0.107939 24.1262 0.00243722 23.5878 4.17312e-05C23.0495 -0.00235376 22.516 0.0984046 22.0181 0.296498C21.5203 0.494592 21.0679 0.786096 20.6872 1.15418C20.3065 1.52226 20.005 1.95962 19.8 2.44101C19.5951 2.92241 19.4908 3.43829 19.4932 3.95887C19.4956 4.47945 19.6046 4.99441 19.814 5.47402C20.0233 5.95363 20.3289 6.38838 20.713 6.75317C21.7745 7.53135 22.955 8.14477 24.2119 8.57133H7.07058C5.57309 8.56947 4.11376 9.028 2.90341 9.88067C1.69306 10.7333 0.794373 11.936 0.33717 13.3149C-0.120032 14.6938 -0.112072 16.1776 0.359901 17.5518C0.831873 18.926 1.74342 20.1196 2.96285 20.9601C2.4889 21.2641 2.12863 21.7074 1.93527 22.2246C1.7419 22.7418 1.72568 23.3054 1.88902 23.8322C2.05235 24.359 2.38657 24.821 2.84231 25.15C3.29805 25.479 3.85113 25.6576 4.41986 25.6593H4.65931C5.5009 27.865 5.5009 30.2887 4.65931 32.4945H4.41986C3.71685 32.4945 3.04263 32.7645 2.54552 33.2452C2.04841 33.7259 1.76914 34.3778 1.76914 35.0576C1.76914 35.7375 2.04841 36.3894 2.54552 36.8701C3.04263 37.3508 3.71685 37.6208 4.41986 37.6208H5.32641C3.83726 38.692 2.73531 40.19 2.1773 41.9017C1.61928 43.6133 1.6336 45.4516 2.21823 47.1549C2.80286 48.8583 3.92802 50.34 5.43369 51.3894C6.93936 52.4388 8.74888 53.0024 10.6049 53H48.5985C49.3015 53 49.9758 52.7299 50.4729 52.2493C50.97 51.7686 51.2492 51.1166 51.2492 50.4368C51.2492 49.757 50.97 49.105 50.4729 48.6244C49.9758 48.1437 49.3015 47.8736 48.5985 47.8736H48.36C47.5184 45.6679 47.5184 43.2442 48.36 41.0384H48.5985C49.3015 41.0384 49.9758 40.7684 50.4729 40.2877C50.97 39.807 51.2492 39.155 51.2492 38.4752C51.2492 37.7954 50.97 37.1435 50.4729 36.6628C49.9758 36.1821 49.3015 35.912 48.5985 35.912H47.692C48.7946 35.1195 49.6904 34.0887 50.308 32.902C50.9257 31.7152 51.248 30.4054 51.2492 29.0769ZM45.9478 10.2801C47.3538 10.2801 48.7023 10.8202 49.6965 11.7816C50.6907 12.743 51.2492 14.0469 51.2492 15.4065C51.2492 16.7661 50.6907 18.07 49.6965 19.0314C48.7023 19.9928 47.3538 20.5329 45.9478 20.5329H34.7035C35.4599 19.8941 36.0663 19.1061 36.4817 18.2219C36.8972 17.3376 37.1121 16.3777 37.1121 15.4065C37.1121 14.4353 36.8972 13.4754 36.4817 12.5912C36.0663 11.707 35.4599 10.919 34.7035 10.2801H45.9478ZM30.0435 10.2801C31.4495 10.2801 32.798 10.8202 33.7922 11.7816C34.7864 12.743 35.3449 14.0469 35.3449 15.4065C35.3449 16.7661 34.7864 18.07 33.7922 19.0314C32.798 19.9928 31.4495 20.5329 30.0435 20.5329H28.5184C29.2749 19.8941 29.8813 19.1061 30.2967 18.2219C30.7122 17.3376 30.9271 16.3777 30.9271 15.4065C30.9271 14.4353 30.7122 13.4754 30.2967 12.5912C29.8813 11.707 29.2749 10.919 28.5184 10.2801H30.0435ZM33.0927 2.38806C33.5262 1.96885 34.1142 1.73334 34.7273 1.73334C35.3404 1.73334 35.9284 1.96885 36.3619 2.38806C36.7954 2.80727 37.039 3.37584 37.039 3.96869C37.039 4.56155 36.7954 5.13012 36.3619 5.54933C35.7523 6.13886 32.9566 7.23164 30.4923 8.06809C31.3529 5.68091 32.4822 2.97759 33.0927 2.38806ZM21.9597 2.38806C22.1743 2.18046 22.4292 2.01578 22.7096 1.90342C22.9901 1.79106 23.2907 1.73323 23.5943 1.73323C23.8979 1.73323 24.1985 1.79106 24.479 1.90342C24.7594 2.01578 25.0143 2.18046 25.2289 2.38806C25.8394 2.97759 26.9687 5.68091 27.8337 8.06382C25.3694 7.22737 22.5738 6.13459 21.9641 5.54506C21.5318 5.12617 21.2889 4.55867 21.2886 3.96691C21.2883 3.37515 21.5305 2.8074 21.9623 2.38806H21.9597ZM23.8585 10.2801C25.2645 10.2801 26.6129 10.8202 27.6072 11.7816C28.6014 12.743 29.1599 14.0469 29.1599 15.4065C29.1599 16.7661 28.6014 18.07 27.6072 19.0314C26.6129 19.9928 25.2645 20.5329 23.8585 20.5329H11.7305C12.487 19.8941 13.0934 19.1061 13.5088 18.2219C13.9243 17.3376 14.1392 16.3777 14.1392 15.4065C14.1392 14.4353 13.9243 13.4754 13.5088 12.5912C13.0934 11.707 12.487 10.919 11.7305 10.2801H23.8585ZM7.95416 20.456V17.3998C7.95462 17.0979 8.07886 16.8085 8.29964 16.595C8.52042 16.3815 8.81973 16.2614 9.13196 16.2609H12.2925C12.1074 17.3084 11.5906 18.2745 10.8135 19.0259C10.0365 19.7773 9.03739 20.277 7.95416 20.456ZM1.76914 15.4065C1.77681 14.1263 2.27957 12.8952 3.17854 11.9553C4.07751 11.0155 5.30763 10.4349 6.62693 10.3278C7.94623 10.2207 9.25924 10.5948 10.3077 11.3765C11.3562 12.1583 12.0642 13.2911 12.2925 14.5521H9.13196C8.3512 14.553 7.60268 14.8533 7.0506 15.3872C6.49852 15.921 6.18795 16.6448 6.18701 17.3998V20.456C4.95306 20.2533 3.83293 19.6353 3.02452 18.7113C2.21611 17.7874 1.77147 16.6168 1.76914 15.4065ZM48.5985 37.6208C48.8329 37.6208 49.0576 37.7109 49.2233 37.8711C49.389 38.0313 49.4821 38.2486 49.4821 38.4752C49.4821 38.7018 49.389 38.9192 49.2233 39.0794C49.0576 39.2396 48.8329 39.3296 48.5985 39.3296H10.6049C9.19885 39.3296 7.85041 39.8697 6.85619 40.8311C5.86198 41.7925 5.30344 43.0964 5.30344 44.456C5.30344 45.8156 5.86198 47.1195 6.85619 48.0809C7.85041 49.0423 9.19885 49.5824 10.6049 49.5824H48.5985C48.8329 49.5824 49.0576 49.6724 49.2233 49.8327C49.389 49.9929 49.4821 50.2102 49.4821 50.4368C49.4821 50.6634 49.389 50.8807 49.2233 51.041C49.0576 51.2012 48.8329 51.2912 48.5985 51.2912H10.6049C8.73017 51.2912 6.93225 50.5711 5.60663 49.2892C4.28101 48.0074 3.53629 46.2688 3.53629 44.456C3.53629 42.6432 4.28101 40.9047 5.60663 39.6228C6.93225 38.341 8.73017 37.6208 10.6049 37.6208H48.5985ZM46.4903 47.8736H10.6049C9.66752 47.8736 8.76856 47.5135 8.10575 46.8726C7.44294 46.2317 7.07058 45.3624 7.07058 44.456C7.07058 43.5496 7.44294 42.6803 8.10575 42.0394C8.76856 41.3985 9.66752 41.0384 10.6049 41.0384H46.4894C45.7789 43.2651 45.7792 45.6471 46.4903 47.8736ZM42.4135 35.912H4.41986C4.18552 35.912 3.96078 35.822 3.79508 35.6618C3.62938 35.5016 3.53629 35.2843 3.53629 35.0576C3.53629 34.831 3.62938 34.6137 3.79508 34.4535C3.96078 34.2933 4.18552 34.2033 4.41986 34.2033H42.4135C43.8195 34.2033 45.168 33.6632 46.1622 32.7018C47.1564 31.7404 47.715 30.4365 47.715 29.0769C47.715 27.7173 47.1564 26.4134 46.1622 25.452C45.168 24.4906 43.8195 23.9505 42.4135 23.9505H4.41986C4.18552 23.9505 3.96078 23.8605 3.79508 23.7002C3.62938 23.54 3.53629 23.3227 3.53629 23.0961C3.53629 22.8695 3.62938 22.6522 3.79508 22.4919C3.96078 22.3317 4.18552 22.2417 4.41986 22.2417H42.4135C44.2882 22.2417 46.0861 22.9618 47.4118 24.2437C48.7374 25.5255 49.4821 27.2641 49.4821 29.0769C49.4821 30.8897 48.7374 32.6282 47.4118 33.9101C46.0861 35.1919 44.2882 35.912 42.4135 35.912ZM6.52895 25.6593H42.4135C43.3509 25.6593 44.2498 26.0193 44.9126 26.6603C45.5754 27.3012 45.9478 28.1705 45.9478 29.0769C45.9478 29.9833 45.5754 30.8525 44.9126 31.4935C44.2498 32.1344 43.3509 32.4945 42.4135 32.4945H6.52807C7.23922 30.268 7.23952 27.8859 6.52895 25.6593Z"
                            fill="white" />
        </svg>